<svg xmlns="http://www.w3.org/2000/svg" xmlns:xlink="http://www.w3.org/1999/xlink" version="1.1" style="" xml:space="preserve" width="654.4444633413239" height="182.8889004566047"><rect id="backgroundrect" width="100%" height="100%" x="0" y="0" fill="none" stroke="none" class="" style=""/>
<style type="text/css">
	.st0{fill:#6F7271;}
	.st1{fill:#C49954;}
	.st2{fill:url(#SVGID_1_);}
	.st3{fill:#285C4D;}
</style>
















<g class="currentLayer" style=""><title>Layer 1</title><g id="svg_1" class="">
	<g id="svg_2">
		<g id="svg_3">
			<g id="svg_4">
				<g id="svg_5">
					<path class="st0" d="M210.5,129.16668701171875 c1.2,1.5 1.8,3.5 1.8,5.7 c0,3.2 -1.2,5.7 -3.7,7.4 c-2.5,1.7000000000000002 -6.1,2.6 -10.9,2.6 h-18.9 v-36.5 h17.8 c4.5,0 7.9,0.9 10.3,2.6 c2.4,1.7000000000000002 3.6,4 3.6,6.9 c0,1.8 -0.4,3.4 -1.3,4.7 c-0.9,1.4 -2,2.5 -3.6,3.3 C207.60000000000002,126.46668701171876 209.29999999999995,127.56668701171873 210.5,129.16668701171875 zM187.10000000000002,114.66668701171875 v8.6 h8.4 c2.1,0 3.7,-0.4 4.7,-1.1 c1.1,-0.7000000000000001 1.6,-1.8 1.6,-3.2 c0,-1.4 -0.5,-2.5 -1.6,-3.2 c-1.1,-0.7000000000000001 -2.7,-1.1 -4.7,-1.1 H187.10000000000002 zM202,137.36668701171874 c1.1,-0.7000000000000001 1.7000000000000002,-1.9 1.7000000000000002,-3.4 c0,-3 -2.2,-4.5 -6.7,-4.5 h-9.9 v9 h9.9 C199.20000000000005,138.46668701171876 200.89999999999998,138.06668701171873 202,137.36668701171874 z" id="svg_6"/>
					<path class="st0" d="M249.20000000000005,138.06668701171873 v6.8 h-28.3 v-36.5 h27.6 v6.8 h-19.2 v7.9 h17 v6.6 h-17 v8.5 H249.20000000000005 z" id="svg_7"/>
					<path class="st0" d="M291.9,108.26668701171877 v36.5 h-6.9 L266.70000000000005,122.66668701171875 v22.2 h-8.3 v-36.5 h7 l18.2,22.2 v-22.2 H291.9 z" id="svg_8"/>
					<path class="st0" d="M302.6,108.26668701171877 h8.5 v36.5 h-8.5 V108.26668701171877 z" id="svg_9"/>
					<path class="st0" d="M329.20000000000005,115.16668701171875 h-11.7 v-6.9 h31.8 v6.9 h-11.7 v29.6 h-8.5 V115.16668701171875 z" id="svg_10"/>
					<path class="st0" d="M362.9,142.96668701171876 c-3,-1.6 -5.4,-3.9 -7.1,-6.8 c-1.7000000000000002,-2.9 -2.6,-6.1 -2.6,-9.7 c0,-3.6 0.9,-6.8 2.6,-9.7 c1.7000000000000002,-2.9 4.1,-5.1 7.1,-6.8 c3,-1.6 6.5,-2.5 10.3,-2.5 c3.8,0 7.2,0.8 10.2,2.5 c3,1.6 5.4,3.9 7.1,6.8 c1.7000000000000002,2.9 2.6,6.1 2.6,9.7 c0,3.6 -0.9,6.8 -2.6,9.7 c-1.7000000000000002,2.9 -4.1,5.1 -7.1,6.8 c-3,1.6 -6.4,2.5 -10.2,2.5 C369.4,145.46668701171876 365.9,144.66668701171875 362.9,142.96668701171876 zM379,136.76668701171877 c1.7000000000000002,-1 3.1,-2.4 4.1,-4.1 c1,-1.8 1.5,-3.8 1.5,-6.1 c0,-2.3 -0.5,-4.3 -1.5,-6.1 c-1,-1.8 -2.4,-3.2 -4.1,-4.1 c-1.7000000000000002,-1 -3.7,-1.5 -5.8,-1.5 c-2.2,0 -4.1,0.5 -5.8,1.5 c-1.7000000000000002,1 -3.1,2.4 -4.1,4.1 c-1,1.8 -1.5,3.8 -1.5,6.1 c0,2.3 0.5,4.3 1.5,6.1 c1,1.8 2.4,3.2 4.1,4.1 c1.7000000000000002,1 3.7,1.5 5.8,1.5 C375.29999999999995,138.26668701171877 377.29999999999995,137.76668701171877 379,136.76668701171877 z" id="svg_11"/>
					<path class="st0" d="M420.5,144.06668701171873 c-2.1,-0.9 -3.8,-2.2 -5.1,-3.9 l4.7,-5.6 c2,2.7 4.2,4 6.8,4 c3.4,0 5.2,-2 5.2,-6.1 v-17.4 h-12.8 v-6.8 h21.2 v23.7 c0,4.5 -1.1,7.9 -3.3,10.1 c-2.2,2.2 -5.5,3.4 -9.8,3.4 C424.79999999999995,145.46668701171876 422.5,144.96668701171876 420.5,144.06668701171873 z" id="svg_12"/>
					<path class="st0" d="M455,141.16668701171875 c-2.9,-2.9 -4.4,-7 -4.4,-12.4 v-20.5 h8.5 v20.1 c0,6.5 2.7,9.8 8.1,9.8 c2.6,0 4.7,-0.8 6.1,-2.4 c1.4,-1.6 2.1,-4.1 2.1,-7.4 v-20.1 h8.3 v20.5 c0,5.4 -1.5,9.5 -4.4,12.4 c-2.9,2.9 -7,4.3 -12.2,4.3 S457.9,143.96668701171876 455,141.16668701171875 z" id="svg_13"/>
					<path class="st0" d="M516.5,136.96668701171876 h-17 l-3.2,7.8 h-8.7 l16.3,-36.5 h8.3 l16.3,36.5 h-8.9 L516.5,136.96668701171876 zM513.9,130.56668701171873 l-5.8,-14 l-5.8,14 H513.9 zM510.4,97.76668701171877 h8.8 l-9.4,7.5 h-6.4 L510.4,97.76668701171877 z" id="svg_14"/>
					<path class="st0" d="M558.1,144.86668701171874 l-7,-10.2 h-0.4 h-7.4 v10.2 h-8.5 v-36.5 h15.8 c3.2,0 6,0.5 8.4,1.6 c2.4,1.1 4.2,2.6 5.5,4.6 c1.3,2 1.9,4.3 1.9,7 c0,2.7 -0.7000000000000001,5.1 -2,7 c-1.3,2 -3.2,3.5 -5.6,4.5 l8.2,11.7 H558.1 zM555.9,116.86668701171874 c-1.3,-1.1 -3.3,-1.6 -5.8,-1.6 h-6.9 v12.7 h6.9 c2.5,0 4.5,-0.6000000000000001 5.8,-1.7000000000000002 c1.3,-1.1 2,-2.7 2,-4.7 C557.9,119.46668701171876 557.2,117.96668701171876 555.9,116.86668701171874 z" id="svg_15"/>
					<path class="st0" d="M603.6,138.06668701171873 v6.8 h-28.3 v-36.5 h27.6 v6.8 h-19.2 v7.9 h17 v6.6 h-17 v8.5 H603.6 z" id="svg_16"/>
					<path class="st0" d="M642.2,137.96668701171876 v6.9 h-31.9 v-5.5 l20,-24.2 h-19.6 v-6.9 h30.7 v5.5 l-20,24.2 H642.2 z" id="svg_17"/>
				</g>
			</g>
		</g>
	</g>
	<g id="svg_18">
		<path class="st1" d="M189.29999999999995,59.46668701171876 c0.2,-0.7000000000000001 0.5,-1.7000000000000002 0.8,-3.2 c0.4,0 1.8,0 2.3,0.1 c0.1,1 0.1,2.7 0.1,3.6 l-0.30000000000000004,0.7000000000000001 c-1.4,1 -3.7,1.7000000000000002 -6.3,1.7000000000000002 c-5.4,0 -8.8,-3.4 -8.8,-9 c0,-5.7 4.1,-9.5 9.3,-9.5 c2.3,0 4.3,0.6000000000000001 5.9,1.5 l0.4,0.7000000000000001 c-0.2,1.3 -0.5,3.1 -0.8,4.4 c-0.5,0 -1.6,0 -2.1,-0.1 c-0.2,-1.5 -0.5,-2.9 -0.6000000000000001,-3.6 c-0.7000000000000001,-0.4 -1.7000000000000002,-0.7000000000000001 -2.9,-0.7000000000000001 c-1.5,0 -2.8,0.4 -3.6,1 c-1.2,1.4 -2,3.4 -2,6.1 c0,4.2 2.1,7 5.7,7 C187.70000000000005,60.16668701171875 188.70000000000005,59.86668701171874 189.29999999999995,59.46668701171876 z" id="svg_19"/>
		<path class="st1" d="M196.5,53.76668701171877 c0,-5.9 3.7,-9.8 9.1,-9.8 c4.9,0 8.2,3.4 8.2,8.8 c0,5.7 -3.5,9.7 -8.8,9.7 C199.89999999999998,62.46668701171876 196.5,59.06668701171873 196.5,53.76668701171877 zM208.70000000000005,59.06668701171873 c0.7000000000000001,-0.9 1.6,-2.8 1.6,-5.9 c0,-4.3 -1.6,-7 -5.2,-7 c-1.4,0 -2.6,0.5 -3.5,1.1 c-0.9,1.3 -1.6,3.3 -1.6,6.1 c0,4.2 1.8,6.8 5.3,6.8 C206.70000000000005,60.26668701171877 208,59.76668701171877 208.70000000000005,59.06668701171873 z" id="svg_20"/>
		<path class="st1" d="M217.39999999999998,53.76668701171877 c0,-5.9 3.7,-9.8 9.1,-9.8 c4.9,0 8.2,3.4 8.2,8.8 c0,5.7 -3.5,9.7 -8.8,9.7 C220.79999999999995,62.46668701171876 217.39999999999998,59.06668701171873 217.39999999999998,53.76668701171877 zM229.60000000000002,59.06668701171873 c0.7000000000000001,-0.9 1.6,-2.8 1.6,-5.9 c0,-4.3 -1.6,-7 -5.2,-7 c-1.4,0 -2.6,0.5 -3.5,1.1 c-0.9,1.3 -1.6,3.3 -1.6,6.1 c0,4.2 1.8,6.8 5.3,6.8 C227.60000000000002,60.26668701171877 228.79999999999995,59.76668701171877 229.60000000000002,59.06668701171873 z" id="svg_21"/>
		<path class="st1" d="M240.79999999999995,60.16668701171875 c0.1,-0.4 0.2,-3.5 0.2,-4.7 v-4.6 c0,-1.6 0,-4.1 -0.2,-4.4 c-0.2,-0.30000000000000004 -1.4,-0.6000000000000001 -2.2,-0.8 l0.30000000000000004,-1.3 h3.7 c0.9,0 3.7,-0.2 4.9,-0.2 c4.3,0 6.8,1.6 6.8,4.9 c0,2.3 -1.7000000000000002,3.8 -3.3,4.6 c1.1,2.1 3,5.6 3.6,6.5 l2,0.7000000000000001 l-0.30000000000000004,1.3 c-1.4,0 -2.7,0.1 -4.5,0.1 c-0.6000000000000001,-1.3 -2.4,-5 -3.7,-7.5 h-3.7 v0.8 c0,1.6 0,4.1 0.2,4.4 c0.2,0.30000000000000004 1.4,0.6000000000000001 2.2,0.8 l-0.30000000000000004,1.3 h-7.6 l-0.30000000000000004,-1.3 L240.79999999999995,60.16668701171875 zM244.20000000000005,52.66668701171875 l4.6,0.2 c1,-0.6000000000000001 2,-1.9 2,-3.6 c0,-1.2 -0.4,-2 -0.9,-2.6 c-0.6000000000000001,-0.5 -1.7000000000000002,-0.7000000000000001 -3,-0.7000000000000001 c-0.8,0 -1.7000000000000002,0.1 -2.4,0.30000000000000004 c-0.1,0.5 -0.2,3.5 -0.2,4.7 V52.66668701171875 z" id="svg_22"/>
		<path class="st1" d="M261.5,60.16668701171875 c0.1,-0.4 0.2,-3.5 0.2,-4.7 v-4.6 c0,-1.6 0,-4.1 -0.2,-4.4 c-0.2,-0.30000000000000004 -1.4,-0.6000000000000001 -2.2,-0.8 l0.30000000000000004,-1.3 h3.5 c0.9,0 3.6,-0.2 4.9,-0.2 c7,0 9.5,4.2 9.5,9 c0,6.1 -4,9.1 -8.8,9.1 c-1.7000000000000002,0 -3.8,-0.2 -5.3,-0.2 h-3.6 l-0.30000000000000004,-1.3 L261.5,60.16668701171875 zM265.20000000000005,59.96668701171876 c0.4,0.4 3.6,0.8 5.4,0.1 c2.1,-1.1 3.3,-3.5 3.3,-6.9 c0,-2.9 -1.1,-5.1 -2.3,-6.1 c-1,-0.6000000000000001 -2.3,-1 -4,-1 c-0.9,0 -1.7000000000000002,0.1 -2.5,0.2 c-0.1,0.5 -0.2,3.4 -0.2,4.7 v4.6 C265,57.06668701171873 265,59.46668701171876 265.20000000000005,59.96668701171876 z" id="svg_23"/>
		<path class="st1" d="M283.4,60.16668701171875 c0.1,-0.4 0.2,-3.5 0.2,-4.7 v-4.6 c0,-1.6 0,-4.1 -0.2,-4.4 c-0.2,-0.30000000000000004 -1.4,-0.6000000000000001 -2.2,-0.8 l0.30000000000000004,-1.3 h7.6 l0.30000000000000004,1.3 l-2.3,0.7000000000000001 c-0.1,0.4 -0.2,3.5 -0.2,4.7 v4.6 c0,1.6 0,4.1 0.2,4.4 c0.2,0.30000000000000004 1.4,0.6000000000000001 2.2,0.8 l-0.30000000000000004,1.3 h-7.6 l-0.30000000000000004,-1.3 L283.4,60.16668701171875 z" id="svg_24"/>
		<path class="st1" d="M307.79999999999995,62.16668701171875 l-2.3,-3 c-2.3,-3.1 -5.2,-6.7 -7.6,-9.6 c0.1,4.5 0.2,10 0.4,10.4 c0.30000000000000004,0.4 1.7000000000000002,0.6000000000000001 2.9,0.9 l-0.30000000000000004,1.3 h-7.3 l-0.30000000000000004,-1.3 l2.3,-0.7000000000000001 c0.1,-0.9 0.2,-3.2 0.2,-6.8 c0,-4.3 -0.1,-6.4 -0.30000000000000004,-6.8 c-0.4,-0.30000000000000004 -1.4,-0.7000000000000001 -2.2,-0.9 l0.30000000000000004,-1.3 c1.6,0 3.4,-0.1 4.9,-0.1 c1.7000000000000002,2.9 6.1,8.3 9.7,12.8 c0,-5.2 -0.2,-10.1 -0.4,-10.5 c-0.2,-0.30000000000000004 -1.7000000000000002,-0.6000000000000001 -2.7,-0.9 l0.30000000000000004,-1.3 h7.2 l0.30000000000000004,1.3 l-2.3,0.7000000000000001 c-0.2,2 -0.30000000000000004,8 -0.30000000000000004,15.6 L307.79999999999995,62.16668701171875 z" id="svg_25"/>
		<path class="st1" d="M322,62.06668701171873 h-7 l-0.30000000000000004,-1.3 l2.1,-0.7000000000000001 c1.7000000000000002,-4.2 3.4,-8.9 5.1,-13.3 l0.7000000000000001,-2.5 c1.2,-0.2 3.1,-0.30000000000000004 4.3,-0.30000000000000004 c0.2,0.8 0.5,1.7000000000000002 1,2.8 c1.7000000000000002,4.6 3.7,10 5,13.3 l2.1,0.7000000000000001 l-0.30000000000000004,1.3 H327 l-0.30000000000000004,-1.3 l2.5,-0.7000000000000001 c-0.4,-1.1 -0.9,-2.5 -1.4,-4 l-6.8,0.1 c-0.5,1.3 -0.9,2.6 -1.3,3.9 l2.6,0.7000000000000001 L322,62.06668701171873 zM327.20000000000005,54.36668701171874 c-0.9,-2.5 -1.9,-5.2 -2.9,-8 c-0.9,2.6 -1.8,5.2 -2.7,7.9 L327.20000000000005,54.36668701171874 z" id="svg_26"/>
		<path class="st1" d="M349.6,59.46668701171876 c0.2,-0.7000000000000001 0.5,-1.7000000000000002 0.8,-3.2 c0.4,0 1.8,0 2.3,0.1 c0.1,1 0.1,2.7 0.1,3.6 l-0.30000000000000004,0.7000000000000001 c-1.4,1 -3.7,1.7000000000000002 -6.3,1.7000000000000002 c-5.4,0 -8.8,-3.4 -8.8,-9 c0,-5.7 4.1,-9.5 9.3,-9.5 c2.3,0 4.3,0.6000000000000001 5.9,1.5 l0.4,0.7000000000000001 c-0.2,1.3 -0.5,3.1 -0.8,4.4 c-0.5,0 -1.6,0 -2.1,-0.1 c-0.2,-1.5 -0.5,-2.9 -0.6000000000000001,-3.6 c-0.7000000000000001,-0.4 -1.7000000000000002,-0.7000000000000001 -2.9,-0.7000000000000001 c-1.5,0 -2.8,0.4 -3.6,1 c-1.2,1.4 -2,3.4 -2,6.1 c0,4.2 2.1,7 5.7,7 C347.9,60.16668701171875 349,59.86668701171874 349.6,59.46668701171876 z" id="svg_27"/>
		<path class="st1" d="M359.29999999999995,60.16668701171875 c0.1,-0.4 0.2,-3.5 0.2,-4.7 v-4.6 c0,-1.6 0,-4.1 -0.2,-4.4 c-0.2,-0.30000000000000004 -1.4,-0.6000000000000001 -2.2,-0.8 l0.30000000000000004,-1.3 h7.6 l0.30000000000000004,1.3 l-2.3,0.7000000000000001 c-0.1,0.4 -0.2,3.5 -0.2,4.7 v4.6 c0,1.6 0,4.1 0.2,4.4 c0.2,0.30000000000000004 1.4,0.6000000000000001 2.2,0.8 l-0.30000000000000004,1.3 h-7.6 l-0.30000000000000004,-1.3 L359.29999999999995,60.16668701171875 z" id="svg_28"/>
		<path class="st1" d="M369,53.76668701171877 c0,-5.9 3.7,-9.8 9.1,-9.8 c4.9,0 8.2,3.4 8.2,8.8 c0,5.7 -3.5,9.7 -8.8,9.7 C372.5,62.46668701171876 369,59.06668701171873 369,53.76668701171877 zM381.20000000000005,59.06668701171873 c0.7000000000000001,-0.9 1.6,-2.8 1.6,-5.9 c0,-4.3 -1.6,-7 -5.2,-7 c-1.4,0 -2.6,0.5 -3.5,1.1 c-0.9,1.3 -1.6,3.3 -1.6,6.1 c0,4.2 1.8,6.8 5.3,6.8 C379.29999999999995,60.26668701171877 380.5,59.76668701171877 381.20000000000005,59.06668701171873 zM381.20000000000005,37.06668701171873 c0.5,0.6000000000000001 1,1.6 1.2,2.4 l-0.4,0.7000000000000001 l-8.1,2.3 l-0.4,-0.2 l-0.30000000000000004,-1.1 C375.5,39.86668701171874 378.5,38.26668701171877 381.20000000000005,37.06668701171873 z" id="svg_29"/>
		<path class="st1" d="M404.6,62.16668701171875 l-2.3,-3 c-2.3,-3.1 -5.2,-6.7 -7.6,-9.6 c0.1,4.5 0.2,10 0.4,10.4 c0.30000000000000004,0.4 1.7000000000000002,0.6000000000000001 2.9,0.9 l-0.30000000000000004,1.3 h-7.3 l-0.30000000000000004,-1.3 l2.3,-0.7000000000000001 c0.1,-0.9 0.2,-3.2 0.2,-6.8 c0,-4.3 -0.1,-6.4 -0.30000000000000004,-6.8 c-0.4,-0.30000000000000004 -1.4,-0.7000000000000001 -2.2,-0.9 l0.30000000000000004,-1.3 c1.6,0 3.4,-0.1 4.9,-0.1 c1.7000000000000002,2.9 6.1,8.3 9.7,12.8 c0,-5.2 -0.2,-10.1 -0.4,-10.5 c-0.2,-0.30000000000000004 -1.7000000000000002,-0.6000000000000001 -2.7,-0.9 l0.30000000000000004,-1.3 h7.2 l0.30000000000000004,1.3 l-2.3,0.7000000000000001 c-0.2,2 -0.30000000000000004,8 -0.30000000000000004,15.6 L404.6,62.16668701171875 z" id="svg_30"/>
		<path class="st1" d="M434.20000000000005,62.16668701171875 l-2.3,-3 c-2.3,-3.1 -5.2,-6.7 -7.6,-9.6 c0.1,4.5 0.2,10 0.4,10.4 c0.30000000000000004,0.4 1.7000000000000002,0.6000000000000001 2.9,0.9 l-0.30000000000000004,1.3 h-7.3 l-0.30000000000000004,-1.3 l2.3,-0.7000000000000001 c0.1,-0.9 0.2,-3.2 0.2,-6.8 c0,-4.3 -0.1,-6.4 -0.30000000000000004,-6.8 c-0.4,-0.30000000000000004 -1.4,-0.7000000000000001 -2.2,-0.9 l0.30000000000000004,-1.3 c1.6,0 3.4,-0.1 4.9,-0.1 c1.7000000000000002,2.9 6.1,8.3 9.7,12.8 c0,-5.2 -0.2,-10.1 -0.4,-10.5 c-0.2,-0.30000000000000004 -1.7000000000000002,-0.6000000000000001 -2.7,-0.9 l0.30000000000000004,-1.3 h7.2 l0.30000000000000004,1.3 l-2.3,0.7000000000000001 c-0.2,2 -0.30000000000000004,8 -0.30000000000000004,15.6 L434.20000000000005,62.16668701171875 z" id="svg_31"/>
		<path class="st1" d="M448.29999999999995,62.06668701171873 h-7 l-0.30000000000000004,-1.3 l2.1,-0.7000000000000001 c1.7000000000000002,-4.2 3.4,-8.9 5.1,-13.3 l0.7000000000000001,-2.5 c1.2,-0.2 3.1,-0.30000000000000004 4.3,-0.30000000000000004 c0.2,0.8 0.5,1.7000000000000002 1,2.8 c1.7000000000000002,4.6 3.7,10 5,13.3 l2.1,0.7000000000000001 l-0.30000000000000004,1.3 h-7.7 l-0.30000000000000004,-1.3 l2.5,-0.7000000000000001 c-0.4,-1.1 -0.9,-2.5 -1.4,-4 l-6.8,0.1 c-0.5,1.3 -0.9,2.6 -1.3,3.9 l2.6,0.7000000000000001 L448.29999999999995,62.06668701171873 zM453.5,54.36668701171874 c-0.9,-2.5 -1.9,-5.2 -2.9,-8 c-0.9,2.6 -1.8,5.2 -2.7,7.9 L453.5,54.36668701171874 z" id="svg_32"/>
		<path class="st1" d="M476,59.46668701171876 c0.2,-0.7000000000000001 0.5,-1.7000000000000002 0.8,-3.2 c0.4,0 1.8,0 2.3,0.1 c0.1,1 0.1,2.7 0.1,3.6 l-0.30000000000000004,0.7000000000000001 c-1.4,1 -3.7,1.7000000000000002 -6.3,1.7000000000000002 c-5.4,0 -8.8,-3.4 -8.8,-9 c0,-5.7 4.1,-9.5 9.3,-9.5 c2.3,0 4.3,0.6000000000000001 5.9,1.5 l0.4,0.7000000000000001 c-0.2,1.3 -0.5,3.1 -0.8,4.4 c-0.5,0 -1.6,0 -2.1,-0.1 c-0.2,-1.5 -0.5,-2.9 -0.6000000000000001,-3.6 c-0.7000000000000001,-0.4 -1.7000000000000002,-0.7000000000000001 -2.9,-0.7000000000000001 c-1.5,0 -2.8,0.4 -3.6,1 c-1.2,1.4 -2,3.4 -2,6.1 c0,4.2 2.1,7 5.7,7 C474.29999999999995,60.16668701171875 475.4,59.86668701171874 476,59.46668701171876 z" id="svg_33"/>
		<path class="st1" d="M485.70000000000005,60.16668701171875 c0.1,-0.4 0.2,-3.5 0.2,-4.7 v-4.6 c0,-1.6 0,-4.1 -0.2,-4.4 c-0.2,-0.30000000000000004 -1.4,-0.6000000000000001 -2.2,-0.8 l0.30000000000000004,-1.3 h7.6 l0.30000000000000004,1.3 l-2.3,0.7000000000000001 c-0.1,0.4 -0.2,3.5 -0.2,4.7 v4.6 c0,1.6 0,4.1 0.2,4.4 c0.2,0.30000000000000004 1.4,0.6000000000000001 2.2,0.8 l-0.30000000000000004,1.3 h-7.6 l-0.30000000000000004,-1.3 L485.70000000000005,60.16668701171875 z" id="svg_34"/>
		<path class="st1" d="M495.4,53.76668701171877 c0,-5.9 3.7,-9.8 9.1,-9.8 c4.9,0 8.2,3.4 8.2,8.8 c0,5.7 -3.5,9.7 -8.8,9.7 C498.79999999999995,62.46668701171876 495.4,59.06668701171873 495.4,53.76668701171877 zM507.6,59.06668701171873 c0.7000000000000001,-0.9 1.6,-2.8 1.6,-5.9 c0,-4.3 -1.6,-7 -5.2,-7 c-1.4,0 -2.6,0.5 -3.5,1.1 c-0.9,1.3 -1.6,3.3 -1.6,6.1 c0,4.2 1.8,6.8 5.3,6.8 C505.70000000000005,60.26668701171877 506.9,59.76668701171877 507.6,59.06668701171873 z" id="svg_35"/>
		<path class="st1" d="M531,62.16668701171875 l-2.3,-3 c-2.3,-3.1 -5.2,-6.7 -7.6,-9.6 c0.1,4.5 0.2,10 0.4,10.4 c0.30000000000000004,0.4 1.7000000000000002,0.6000000000000001 2.9,0.9 l-0.30000000000000004,1.3 h-7.3 l-0.30000000000000004,-1.3 l2.3,-0.7000000000000001 c0.1,-0.9 0.2,-3.2 0.2,-6.8 c0,-4.3 -0.1,-6.4 -0.30000000000000004,-6.8 c-0.4,-0.30000000000000004 -1.4,-0.7000000000000001 -2.2,-0.9 l0.30000000000000004,-1.3 c1.6,0 3.4,-0.1 4.9,-0.1 c1.7000000000000002,2.9 6.1,8.3 9.7,12.8 c0,-5.2 -0.2,-10.1 -0.4,-10.5 c-0.2,-0.30000000000000004 -1.7000000000000002,-0.6000000000000001 -2.7,-0.9 l0.30000000000000004,-1.3 h7.2 l0.30000000000000004,1.3 l-2.3,0.7000000000000001 c-0.2,2 -0.30000000000000004,8 -0.30000000000000004,15.6 L531,62.16668701171875 z" id="svg_36"/>
		<path class="st1" d="M545.1,62.06668701171873 h-7 l-0.30000000000000004,-1.3 l2.1,-0.7000000000000001 c1.7000000000000002,-4.2 3.4,-8.9 5.1,-13.3 l0.7000000000000001,-2.5 c1.2,-0.2 3.1,-0.30000000000000004 4.3,-0.30000000000000004 c0.2,0.8 0.5,1.7000000000000002 1,2.8 c1.7000000000000002,4.6 3.7,10 5,13.3 l2.1,0.7000000000000001 l-0.30000000000000004,1.3 h-7.7 l-0.30000000000000004,-1.3 l2.5,-0.7000000000000001 c-0.4,-1.1 -0.9,-2.5 -1.4,-4 l-6.8,0.1 c-0.5,1.3 -0.9,2.6 -1.3,3.9 l2.6,0.7000000000000001 L545.1,62.06668701171873 zM550.3,54.36668701171874 c-0.9,-2.5 -1.9,-5.2 -2.9,-8 c-0.9,2.6 -1.8,5.2 -2.7,7.9 L550.3,54.36668701171874 z" id="svg_37"/>
		<path class="st1" d="M562.9,60.16668701171875 c0.1,-0.4 0.2,-3.5 0.2,-4.7 v-4.6 c0,-1.6 0,-4.1 -0.2,-4.4 c-0.2,-0.30000000000000004 -1.4,-0.6000000000000001 -2.2,-0.8 l0.30000000000000004,-1.3 h7.6 l0.30000000000000004,1.3 l-2.3,0.7000000000000001 c-0.1,0.4 -0.2,3.5 -0.2,4.7 v4.6 c0,1.7000000000000002 0,4.1 0.30000000000000004,4.5 c0.30000000000000004,0.30000000000000004 1.9,0.30000000000000004 3,0.30000000000000004 c1,0 2.1,-0.1 2.8,-0.1 l0.8,-3.4 c0.5,0 1.7000000000000002,0 2.2,0.1 c0.1,1.6 0,3.4 -0.1,5.1 h-14.4 l-0.30000000000000004,-1.3 L562.9,60.16668701171875 z" id="svg_38"/>
		<path class="st1" d="M179.5,89.16668701171875 c0.1,-0.4 0.2,-3.5 0.2,-4.7 v-4.6 c0,-1.6 0,-4.1 -0.2,-4.4 c-0.2,-0.30000000000000004 -1.4,-0.6000000000000001 -2.2,-0.8 l0.30000000000000004,-1.3 h3.5 c0.9,0 3.6,-0.2 4.9,-0.2 c7,0 9.5,4.2 9.5,9 c0,6.1 -4,9.1 -8.8,9.1 c-1.7000000000000002,0 -3.8,-0.2 -5.3,-0.2 h-3.6 l-0.30000000000000004,-1.3 L179.5,89.16668701171875 zM183.10000000000002,88.96668701171876 c0.4,0.4 3.6,0.8 5.4,0.1 c2.1,-1.1 3.3,-3.5 3.3,-6.9 c0,-2.9 -1.1,-5.1 -2.3,-6.1 c-1,-0.6000000000000001 -2.3,-1 -4,-1 c-0.9,0 -1.7000000000000002,0.1 -2.5,0.2 c-0.1,0.5 -0.2,3.4 -0.2,4.7 v4.6 C182.89999999999998,86.16668701171875 182.89999999999998,88.56668701171873 183.10000000000002,88.96668701171876 z" id="svg_39"/>
		<path class="st1" d="M201.39999999999998,89.16668701171875 c0.1,-0.4 0.2,-3.5 0.2,-4.7 v-4.6 c0,-1.6 0,-4.2 -0.2,-4.4 c-0.30000000000000004,-0.30000000000000004 -1.4,-0.6000000000000001 -2.2,-0.8 l0.30000000000000004,-1.3 h6.6 c3,0 5.5,-0.1 7.5,-0.2 c0.2,0.2 0.5,0.7000000000000001 0.6000000000000001,0.9 c-0.2,1.2 -0.5,3.2 -0.7000000000000001,4.3 c-0.5,0 -1.5,0 -2,-0.1 l-0.5,-3.1 c-0.8,-0.1 -2,-0.1 -3.1,-0.1 c-1,0 -2,0 -2.8,0.1 c-0.1,0.5 -0.2,3.6 -0.2,4.9 v1.5 l5.7,-0.2 l0.4,0.5 c-0.1,0.4 -0.2,1.2 -0.30000000000000004,1.7000000000000002 l-5.8,-0.2 v1.3 c0,1.6 0,4 0.2,4.4 c0.30000000000000004,0.30000000000000004 1.9,0.4 3,0.4 c1.1,0 2.3,-0.1 3.1,-0.2 l0.7000000000000001,-3.1 c0.5,0 1.7000000000000002,0 2.2,0.1 c0.1,1.6 0.1,3.2 0,4.9 h-14.7 l-0.30000000000000004,-1.3 L201.39999999999998,89.16668701171875 z" id="svg_40"/>
		<path class="st1" d="M227.20000000000005,89.16668701171875 c0.1,-0.4 0.2,-3.5 0.2,-4.7 v-4.6 c0,-1.6 0,-4.1 -0.2,-4.4 c-0.2,-0.30000000000000004 -1.4,-0.6000000000000001 -2.2,-0.8 l0.30000000000000004,-1.3 h3.5 c0.9,0 3.6,-0.2 4.8,-0.2 c4,0 6.5,1.5 6.5,4.6 c0,2 -1.3,3.3 -2.8,4.1 c2.1,0.5 3.8,1.9 3.8,4.3 c0,3.3 -3,5 -6.5,5 c-1.6,0 -3.8,-0.2 -5.6,-0.2 h-3.7 l-0.30000000000000004,-1.3 L227.20000000000005,89.16668701171875 zM233.79999999999995,89.56668701171873 c0.7000000000000001,0 1.7000000000000002,-0.1 2.4,-0.30000000000000004 c0.8,-0.6000000000000001 1.4,-1.6 1.4,-2.9 c0,-1.8 -1.2,-3 -3.5,-3 h-3.4 v1.3 c0,1.6 0,4.1 0.2,4.4 C231.10000000000002,89.36668701171874 232.60000000000002,89.56668701171873 233.79999999999995,89.56668701171873 zM230.60000000000002,81.26668701171877 l4.1,0.2 c1,-0.5 1.9,-1.7000000000000002 1.9,-3.3 c0,-1.1 -0.30000000000000004,-1.8 -0.7000000000000001,-2.3 c-0.7000000000000001,-0.5 -1.6,-0.7000000000000001 -2.8,-0.7000000000000001 c-0.7000000000000001,0 -1.7000000000000002,0.1 -2.3,0.30000000000000004 c-0.1,0.5 -0.2,3.5 -0.2,4.7 V81.26668701171877 z" id="svg_41"/>
		<path class="st1" d="M247.10000000000002,89.16668701171875 c0.1,-0.4 0.2,-3.5 0.2,-4.7 v-4.6 c0,-1.6 0,-4.2 -0.2,-4.4 c-0.30000000000000004,-0.30000000000000004 -1.4,-0.6000000000000001 -2.2,-0.8 l0.30000000000000004,-1.3 h6.6 c3,0 5.5,-0.1 7.5,-0.2 c0.2,0.2 0.5,0.7000000000000001 0.6000000000000001,0.9 c-0.2,1.2 -0.5,3.2 -0.7000000000000001,4.3 c-0.5,0 -1.5,0 -2,-0.1 l-0.5,-3.1 c-0.8,-0.1 -2,-0.1 -3.1,-0.1 c-1,0 -2,0 -2.8,0.1 c-0.1,0.5 -0.2,3.6 -0.2,4.9 v1.5 l5.7,-0.2 l0.4,0.5 c-0.1,0.4 -0.2,1.2 -0.30000000000000004,1.7000000000000002 l-5.8,-0.2 v1.3 c0,1.6 0,4 0.2,4.4 c0.30000000000000004,0.30000000000000004 1.9,0.4 3,0.4 c1.1,0 2.3,-0.1 3.1,-0.2 l0.7000000000000001,-3.1 c0.5,0 1.7000000000000002,0 2.2,0.1 c0.1,1.6 0.1,3.2 0,4.9 h-14.7 l-0.30000000000000004,-1.3 L247.10000000000002,89.16668701171875 z" id="svg_42"/>
		<path class="st1" d="M275.9,88.56668701171873 c0.2,-0.7000000000000001 0.5,-1.7000000000000002 0.8,-3.2 c0.4,0 1.8,0 2.3,0.1 c0.1,1 0.1,2.7 0.1,3.6 l-0.30000000000000004,0.7000000000000001 c-1.4,1 -3.7,1.7000000000000002 -6.3,1.7000000000000002 c-5.4,0 -8.8,-3.4 -8.8,-9 c0,-5.7 4.1,-9.5 9.3,-9.5 c2.3,0 4.3,0.6000000000000001 5.9,1.5 l0.4,0.7000000000000001 c-0.2,1.3 -0.5,3.1 -0.8,4.4 c-0.5,0 -1.6,0 -2.1,-0.1 c-0.2,-1.5 -0.5,-2.9 -0.6000000000000001,-3.6 c-0.7000000000000001,-0.4 -1.7000000000000002,-0.7000000000000001 -2.9,-0.7000000000000001 c-1.5,0 -2.8,0.4 -3.6,1 c-1.2,1.4 -2,3.4 -2,6.1 c0,4.2 2.1,7 5.7,7 C274.29999999999995,89.26668701171877 275.29999999999995,88.96668701171876 275.9,88.56668701171873 z" id="svg_43"/>
		<path class="st1" d="M289,91.16668701171875 h-7 l-0.30000000000000004,-1.3 l2.1,-0.7000000000000001 c1.7000000000000002,-4.2 3.4,-8.9 5.1,-13.3 l0.7000000000000001,-2.5 c1.2,-0.2 3.1,-0.30000000000000004 4.3,-0.30000000000000004 c0.2,0.8 0.5,1.7000000000000002 1,2.8 c1.7000000000000002,4.6 3.7,10 5,13.3 l2.1,0.7000000000000001 l-0.30000000000000004,1.3 H294 l-0.30000000000000004,-1.3 l2.5,-0.7000000000000001 c-0.4,-1.1 -0.9,-2.5 -1.4,-4 l-6.8,0.1 c-0.5,1.3 -0.9,2.6 -1.3,3.9 l2.6,0.7000000000000001 L289,91.16668701171875 zM294.20000000000005,83.46668701171876 c-0.9,-2.5 -1.9,-5.2 -2.9,-8 c-0.9,2.6 -1.8,5.2 -2.7,7.9 L294.20000000000005,83.46668701171876 z" id="svg_44"/>
		<path class="st1" d="M317,74.36668701171874 l0.4,0.7000000000000001 c-0.2,1.1 -0.6000000000000001,3 -0.7000000000000001,3.9 c-0.4,0 -1.6,0 -2.1,-0.1 c-0.1,-1.4 -0.30000000000000004,-2.4 -0.4,-3 c-0.6000000000000001,-0.4 -1.6,-0.7000000000000001 -2.8,-0.7000000000000001 c-1.1,0 -2.1,0.30000000000000004 -2.6,0.7000000000000001 c-0.30000000000000004,0.5 -0.6000000000000001,1.1 -0.6000000000000001,1.8 c0,4.2 9.5,3.1 9.5,8.9 c0,3 -2.6,5 -6.7,5 c-2.6,0 -5,-0.9 -6.2,-1.5 l-0.1,-0.30000000000000004 c0,-1.2 0,-2.6 0.1,-3.8 c0.5,-0.1 1.8,-0.1 2.2,-0.1 c0.30000000000000004,1.2 0.4,2 0.6000000000000001,2.8 c0.7000000000000001,0.5 2.2,0.8 3.4,0.8 c1.2,0 2,-0.2 2.6,-0.5 c0.30000000000000004,-0.4 0.6000000000000001,-1.1 0.6000000000000001,-1.9 c0,-4 -9.4,-2.8 -9.4,-8.8 c0,-3.1 3.1,-5.3 6.8,-5.3 C313.79999999999995,73.06668701171873 315.6,73.56668701171873 317,74.36668701171874 z" id="svg_45"/>
		<path class="st1" d="M330.79999999999995,89.16668701171875 c0.1,-0.4 0.2,-3.5 0.2,-4.7 v-4.6 c0,-1.6 0,-4.2 -0.2,-4.4 c-0.30000000000000004,-0.30000000000000004 -1.4,-0.6000000000000001 -2.2,-0.8 l0.30000000000000004,-1.3 h3.7 c0.9,0 3.6,-0.2 4.8,-0.2 c4.3,0 6.9,2 6.9,5.7 c0,4 -2.7,6.2 -7.2,6.2 c-1.1,0 -2,-0.1 -2.8,-0.2 c0,1.5 0,3.9 0.2,4.2 c0.30000000000000004,0.30000000000000004 1.9,0.5 3,0.8 l-0.30000000000000004,1.3 h-8.4 l-0.30000000000000004,-1.3 L330.79999999999995,89.16668701171875 zM339.5,75.76668701171877 c-0.7000000000000001,-0.4 -1.6,-0.7000000000000001 -2.7,-0.7000000000000001 c-0.8,0 -1.8,0.1 -2.5,0.30000000000000004 c-0.1,0.6000000000000001 -0.1,3.5 -0.1,4.7 v2.8 c0.8,0.1 1.7000000000000002,0.2 2.5,0.2 c1,0 2.1,-0.2 2.8,-0.5 c0.7000000000000001,-0.6000000000000001 1.3,-1.7000000000000002 1.3,-3.6 C340.70000000000005,77.46668701171876 340.20000000000005,76.36668701171874 339.5,75.76668701171877 z" id="svg_46"/>
		<path class="st1" d="M353.1,91.16668701171875 h-7 l-0.30000000000000004,-1.3 l2.1,-0.7000000000000001 c1.7000000000000002,-4.2 3.4,-8.9 5.1,-13.3 l0.7000000000000001,-2.5 c1.2,-0.2 3.1,-0.30000000000000004 4.3,-0.30000000000000004 c0.2,0.8 0.5,1.7000000000000002 1,2.8 c1.7000000000000002,4.6 3.7,10 5,13.3 l2.1,0.7000000000000001 l-0.30000000000000004,1.3 h-7.7 l-0.30000000000000004,-1.3 l2.5,-0.7000000000000001 c-0.4,-1.1 -0.9,-2.5 -1.4,-4 l-6.8,0.1 c-0.5,1.3 -0.9,2.6 -1.3,3.9 l2.6,0.7000000000000001 L353.1,91.16668701171875 zM358.29999999999995,83.46668701171876 c-0.9,-2.5 -1.9,-5.2 -2.9,-8 c-0.9,2.6 -1.8,5.2 -2.7,7.9 L358.29999999999995,83.46668701171876 z" id="svg_47"/>
		<path class="st1" d="M370.9,89.16668701171875 c0.1,-0.4 0.2,-3.5 0.2,-4.7 v-4.6 c0,-1.6 0,-4.1 -0.2,-4.4 c-0.2,-0.30000000000000004 -1.4,-0.6000000000000001 -2.2,-0.8 l0.30000000000000004,-1.3 h3.7 c0.9,0 3.7,-0.2 4.9,-0.2 c4.3,0 6.8,1.6 6.8,4.9 c0,2.3 -1.7000000000000002,3.8 -3.3,4.6 c1.1,2.1 3,5.6 3.6,6.5 l2,0.7000000000000001 l-0.30000000000000004,1.3 c-1.4,0 -2.7,0.1 -4.5,0.1 c-0.6000000000000001,-1.3 -2.4,-5 -3.7,-7.5 h-3.7 v0.8 c0,1.6 0,4.1 0.2,4.4 c0.2,0.30000000000000004 1.4,0.6000000000000001 2.2,0.8 l-0.30000000000000004,1.3 h-7.6 l-0.30000000000000004,-1.3 L370.9,89.16668701171875 zM374.29999999999995,81.76668701171877 l4.6,0.2 c1,-0.6000000000000001 2,-1.9 2,-3.6 c0,-1.2 -0.4,-2 -0.9,-2.6 c-0.6000000000000001,-0.5 -1.7000000000000002,-0.7000000000000001 -3,-0.7000000000000001 c-0.8,0 -1.7000000000000002,0.1 -2.4,0.30000000000000004 c-0.1,0.5 -0.2,3.5 -0.2,4.7 V81.76668701171877 z" id="svg_48"/>
		<path class="st1" d="M395,91.16668701171875 h-7 l-0.30000000000000004,-1.3 l2.1,-0.7000000000000001 c1.7000000000000002,-4.2 3.4,-8.9 5.1,-13.3 l0.7000000000000001,-2.5 c1.2,-0.2 3.1,-0.30000000000000004 4.3,-0.30000000000000004 c0.2,0.8 0.5,1.7000000000000002 1,2.8 c1.7000000000000002,4.6 3.7,10 5,13.3 l2.1,0.7000000000000001 l-0.30000000000000004,1.3 H400 l-0.30000000000000004,-1.3 l2.5,-0.7000000000000001 c-0.4,-1.1 -0.9,-2.5 -1.4,-4 l-6.8,0.1 c-0.5,1.3 -0.9,2.6 -1.3,3.9 l2.6,0.7000000000000001 L395,91.16668701171875 zM400.20000000000005,83.46668701171876 c-0.9,-2.5 -1.9,-5.2 -2.9,-8 c-0.9,2.6 -1.8,5.2 -2.7,7.9 L400.20000000000005,83.46668701171876 z" id="svg_49"/>
		<path class="st1" d="M419.6,89.16668701171875 c0.1,-0.4 0.2,-3.5 0.2,-4.7 v-4.6 c0,-1.6 0,-4.2 -0.2,-4.4 c-0.30000000000000004,-0.30000000000000004 -1.4,-0.6000000000000001 -2.2,-0.8 l0.30000000000000004,-1.3 h6.6 c3,0 5.5,-0.1 7.5,-0.2 c0.2,0.2 0.5,0.7000000000000001 0.6000000000000001,0.9 c-0.2,1.2 -0.5,3.2 -0.7000000000000001,4.3 c-0.5,0 -1.5,0 -2,-0.1 l-0.5,-3.1 c-0.8,-0.1 -2,-0.1 -3.1,-0.1 c-1,0 -2,0 -2.8,0.1 c-0.1,0.5 -0.2,3.6 -0.2,4.9 v1.5 l5.7,-0.2 l0.4,0.5 c-0.1,0.4 -0.2,1.2 -0.30000000000000004,1.7000000000000002 l-5.8,-0.2 v1.3 c0,1.6 0,4 0.2,4.4 c0.30000000000000004,0.30000000000000004 1.9,0.4 3,0.4 c1.1,0 2.3,-0.1 3.1,-0.2 l0.7000000000000001,-3.1 c0.5,0 1.7000000000000002,0 2.2,0.1 c0.1,1.6 0.1,3.2 0,4.9 h-14.7 l-0.30000000000000004,-1.3 L419.6,89.16668701171875 z" id="svg_50"/>
		<path class="st1" d="M438.6,89.16668701171875 c0.1,-0.4 0.2,-3.5 0.2,-4.7 v-4.6 c0,-1.6 0,-4.1 -0.2,-4.4 c-0.2,-0.30000000000000004 -1.4,-0.6000000000000001 -2.2,-0.8 l0.30000000000000004,-1.3 h7.6 l0.30000000000000004,1.3 l-2.3,0.7000000000000001 c-0.1,0.4 -0.2,3.5 -0.2,4.7 v4.6 c0,1.7000000000000002 0,4.1 0.30000000000000004,4.5 c0.30000000000000004,0.30000000000000004 1.9,0.30000000000000004 3,0.30000000000000004 c1,0 2.1,-0.1 2.8,-0.1 l0.8,-3.4 c0.5,0 1.7000000000000002,0 2.2,0.1 c0.1,1.6 0,3.4 -0.1,5.1 h-14.4 l-0.30000000000000004,-1.3 L438.6,89.16668701171875 z" id="svg_51"/>
		<path class="st1" d="M463.70000000000005,89.16668701171875 c0.1,-0.4 0.2,-3.5 0.2,-4.7 v-4.6 c0,-1.6 0,-4.1 -0.2,-4.4 c-0.2,-0.30000000000000004 -1.4,-0.6000000000000001 -2.2,-0.8 l0.30000000000000004,-1.3 h3.5 c0.9,0 3.6,-0.2 4.8,-0.2 c4,0 6.5,1.5 6.5,4.6 c0,2 -1.3,3.3 -2.8,4.1 c2.1,0.5 3.8,1.9 3.8,4.3 c0,3.3 -3,5 -6.5,5 c-1.6,0 -3.8,-0.2 -5.6,-0.2 h-3.7 l-0.30000000000000004,-1.3 L463.70000000000005,89.16668701171875 zM470.4,89.56668701171873 c0.7000000000000001,0 1.7000000000000002,-0.1 2.4,-0.30000000000000004 c0.8,-0.6000000000000001 1.4,-1.6 1.4,-2.9 c0,-1.8 -1.2,-3 -3.5,-3 h-3.4 v1.3 c0,1.6 0,4.1 0.2,4.4 C467.6,89.36668701171874 469.1,89.56668701171873 470.4,89.56668701171873 zM467.20000000000005,81.26668701171877 l4.1,0.2 c1,-0.5 1.9,-1.7000000000000002 1.9,-3.3 c0,-1.1 -0.30000000000000004,-1.8 -0.7000000000000001,-2.3 c-0.7000000000000001,-0.5 -1.6,-0.7000000000000001 -2.8,-0.7000000000000001 c-0.7000000000000001,0 -1.7000000000000002,0.1 -2.3,0.30000000000000004 c-0.1,0.5 -0.2,3.5 -0.2,4.7 V81.26668701171877 z" id="svg_52"/>
		<path class="st1" d="M483.6,89.16668701171875 c0.1,-0.4 0.2,-3.5 0.2,-4.7 v-4.6 c0,-1.6 0,-4.1 -0.2,-4.4 c-0.2,-0.30000000000000004 -1.4,-0.6000000000000001 -2.2,-0.8 l0.30000000000000004,-1.3 h7.6 l0.30000000000000004,1.3 l-2.3,0.7000000000000001 c-0.1,0.4 -0.2,3.5 -0.2,4.7 v4.6 c0,1.6 0,4.1 0.2,4.4 c0.2,0.30000000000000004 1.4,0.6000000000000001 2.2,0.8 l-0.30000000000000004,1.3 h-7.6 l-0.30000000000000004,-1.3 L483.6,89.16668701171875 z" id="svg_53"/>
		<path class="st1" d="M495.9,89.16668701171875 c0.1,-0.4 0.2,-3.5 0.2,-4.7 v-4.6 c0,-1.6 0,-4.2 -0.2,-4.4 c-0.30000000000000004,-0.30000000000000004 -1.4,-0.6000000000000001 -2.2,-0.8 l0.30000000000000004,-1.3 h6.6 c3,0 5.5,-0.1 7.5,-0.2 c0.2,0.2 0.5,0.7000000000000001 0.6000000000000001,0.9 c-0.2,1.2 -0.5,3.2 -0.7000000000000001,4.3 c-0.5,0 -1.5,0 -2,-0.1 l-0.5,-3.1 c-0.8,-0.1 -2,-0.1 -3.1,-0.1 c-1,0 -2,0 -2.8,0.1 c-0.1,0.5 -0.2,3.6 -0.2,4.9 v1.5 l5.7,-0.2 l0.4,0.5 c-0.1,0.4 -0.2,1.2 -0.30000000000000004,1.7000000000000002 l-5.8,-0.2 v1.3 c0,1.6 0,4 0.2,4.4 c0.30000000000000004,0.30000000000000004 1.9,0.4 3,0.4 c1.1,0 2.3,-0.1 3.1,-0.2 l0.7000000000000001,-3.1 c0.5,0 1.7000000000000002,0 2.2,0.1 c0.1,1.6 0.1,3.2 0,4.9 h-14.7 l-0.30000000000000004,-1.3 L495.9,89.16668701171875 z" id="svg_54"/>
		<path class="st1" d="M527,91.26668701171877 l-2.3,-3 c-2.3,-3.1 -5.2,-6.7 -7.6,-9.6 c0.1,4.5 0.2,10 0.4,10.4 c0.30000000000000004,0.4 1.7000000000000002,0.6000000000000001 2.9,0.9 l-0.30000000000000004,1.3 H513 l-0.30000000000000004,-1.3 l2.3,-0.7000000000000001 c0.1,-0.9 0.2,-3.2 0.2,-6.8 c0,-4.3 -0.1,-6.4 -0.30000000000000004,-6.8 c-0.4,-0.30000000000000004 -1.4,-0.7000000000000001 -2.2,-0.9 l0.30000000000000004,-1.3 c1.6,0 3.4,-0.1 4.9,-0.1 c1.7000000000000002,2.9 6.1,8.3 9.7,12.8 c0,-5.2 -0.2,-10.1 -0.4,-10.5 c-0.2,-0.30000000000000004 -1.7000000000000002,-0.6000000000000001 -2.7,-0.9 l0.30000000000000004,-1.3 h7.2 l0.30000000000000004,1.3 l-2.3,0.7000000000000001 c-0.2,2 -0.30000000000000004,8 -0.30000000000000004,15.6 L527,91.26668701171877 z" id="svg_55"/>
		<path class="st1" d="M537.8,89.16668701171875 c0.1,-0.4 0.2,-3.5 0.2,-4.7 v-4.6 c0,-1.6 0,-4.2 -0.2,-4.4 c-0.30000000000000004,-0.30000000000000004 -1.4,-0.6000000000000001 -2.2,-0.8 l0.30000000000000004,-1.3 h6.6 c3,0 5.5,-0.1 7.5,-0.2 c0.2,0.2 0.5,0.7000000000000001 0.6000000000000001,0.9 c-0.2,1.2 -0.5,3.2 -0.7000000000000001,4.3 c-0.5,0 -1.5,0 -2,-0.1 l-0.5,-3.1 c-0.8,-0.1 -2,-0.1 -3.1,-0.1 c-1,0 -2,0 -2.8,0.1 c-0.1,0.5 -0.2,3.6 -0.2,4.9 v1.5 l5.7,-0.2 l0.4,0.5 c-0.1,0.4 -0.2,1.2 -0.30000000000000004,1.7000000000000002 l-5.8,-0.2 v1.3 c0,1.6 0,4 0.2,4.4 c0.30000000000000004,0.30000000000000004 1.9,0.4 3,0.4 c1.1,0 2.3,-0.1 3.1,-0.2 l0.7000000000000001,-3.1 c0.5,0 1.7000000000000002,0 2.2,0.1 c0.1,1.6 0.1,3.2 0,4.9 h-14.7 l-0.30000000000000004,-1.3 L537.8,89.16668701171875 z" id="svg_56"/>
		<path class="st1" d="M566.9,74.36668701171874 l0.4,0.7000000000000001 c-0.2,1.1 -0.6000000000000001,3 -0.7000000000000001,3.9 c-0.4,0 -1.6,0 -2.1,-0.1 c-0.1,-1.4 -0.30000000000000004,-2.4 -0.4,-3 c-0.6000000000000001,-0.4 -1.6,-0.7000000000000001 -2.8,-0.7000000000000001 c-1.1,0 -2.1,0.30000000000000004 -2.6,0.7000000000000001 c-0.30000000000000004,0.5 -0.6000000000000001,1.1 -0.6000000000000001,1.8 c0,4.2 9.5,3.1 9.5,8.9 c0,3 -2.6,5 -6.7,5 c-2.6,0 -5,-0.9 -6.2,-1.5 l-0.1,-0.30000000000000004 c0,-1.2 0,-2.6 0.1,-3.8 c0.5,-0.1 1.8,-0.1 2.2,-0.1 c0.30000000000000004,1.2 0.4,2 0.6000000000000001,2.8 c0.7000000000000001,0.5 2.2,0.8 3.4,0.8 c1.2,0 2,-0.2 2.6,-0.5 c0.30000000000000004,-0.4 0.6000000000000001,-1.1 0.6000000000000001,-1.9 c0,-4 -9.4,-2.8 -9.4,-8.8 c0,-3.1 3.1,-5.3 6.8,-5.3 C563.7,73.06668701171873 565.6,73.56668701171873 566.9,74.36668701171874 z" id="svg_57"/>
		<path class="st1" d="M577.3,89.16668701171875 c0.1,-0.4 0.1,-2.7 0.1,-4.7 v-9.4 H577 c-1.1,0 -2.3,0.1 -3.1,0.2 l-0.7000000000000001,3.3 c-0.5,0 -1.7000000000000002,0 -2.2,-0.1 c-0.1,-1.6 -0.1,-3.4 0,-5.1 h8.5 c3,0 5.4,0 7.3,-0.2 c0.2,0.2 0.5,0.6000000000000001 0.6000000000000001,0.8 c-0.1,1.3 -0.30000000000000004,2.9 -0.4,4.4 c-0.5,0.1 -1.5,0 -2,0 l-0.6000000000000001,-3.2 c-0.8,-0.1 -2,-0.1 -3,-0.1 h-0.7000000000000001 v9.5 c0,1.6 0,4.1 0.2,4.4 c0.2,0.30000000000000004 1.4,0.6000000000000001 2.2,0.8 l-0.30000000000000004,1.3 h-7.6 l-0.30000000000000004,-1.3 L577.3,89.16668701171875 z" id="svg_58"/>
		<path class="st1" d="M596.5,91.16668701171875 h-7 l-0.30000000000000004,-1.3 l2.1,-0.7000000000000001 c1.7000000000000002,-4.2 3.4,-8.9 5.1,-13.3 l0.7000000000000001,-2.5 c1.2,-0.2 3.1,-0.30000000000000004 4.3,-0.30000000000000004 c0.2,0.8 0.5,1.7000000000000002 1,2.8 c1.7000000000000002,4.6 3.7,10 5,13.3 l2.1,0.7000000000000001 l-0.30000000000000004,1.3 h-7.7 l-0.30000000000000004,-1.3 l2.5,-0.7000000000000001 c-0.4,-1.1 -0.9,-2.5 -1.4,-4 l-6.8,0.1 c-0.5,1.3 -0.9,2.6 -1.3,3.9 l2.6,0.7000000000000001 L596.5,91.16668701171875 zM601.7,83.46668701171876 c-0.9,-2.5 -1.9,-5.2 -2.9,-8 c-0.9,2.6 -1.8,5.2 -2.7,7.9 L601.7,83.46668701171876 z" id="svg_59"/>
		<path class="st1" d="M614.3,89.16668701171875 c0.1,-0.4 0.2,-3.5 0.2,-4.7 v-4.6 c0,-1.6 0,-4.1 -0.2,-4.4 c-0.2,-0.30000000000000004 -1.4,-0.6000000000000001 -2.2,-0.8 l0.30000000000000004,-1.3 h3.7 c0.9,0 3.7,-0.2 4.9,-0.2 c4.3,0 6.8,1.6 6.8,4.9 c0,2.3 -1.7000000000000002,3.8 -3.3,4.6 c1.1,2.1 3,5.6 3.6,6.5 l2,0.7000000000000001 l-0.30000000000000004,1.3 c-1.4,0 -2.7,0.1 -4.5,0.1 c-0.6000000000000001,-1.3 -2.4,-5 -3.7,-7.5 h-3.7 v0.8 c0,1.6 0,4.1 0.2,4.4 c0.2,0.30000000000000004 1.4,0.6000000000000001 2.2,0.8 l-0.30000000000000004,1.3 h-7.6 l-0.30000000000000004,-1.3 L614.3,89.16668701171875 zM617.8,81.76668701171877 l4.6,0.2 c1,-0.6000000000000001 2,-1.9 2,-3.6 c0,-1.2 -0.4,-2 -0.9,-2.6 c-0.6000000000000001,-0.5 -1.7000000000000002,-0.7000000000000001 -3,-0.7000000000000001 c-0.8,0 -1.7000000000000002,0.1 -2.4,0.30000000000000004 c-0.1,0.5 -0.2,3.5 -0.2,4.7 V81.76668701171877 z" id="svg_60"/>
	</g>
	<g id="svg_61">
		<radialGradient id="SVGID_1_" cx="489.9519958496094" cy="336.11419677734375" r="123.02749633789062" gradientUnits="userSpaceOnUse" transform="translate(-360,-293.33331298828125) ">
			<stop offset="0" style="stop-color:#DDC9A3"/>
			<stop offset="0.1464" style="stop-color:#D8BF93"/>
			<stop offset="0.5075" style="stop-color:#CDAB70"/>
			<stop offset="0.8049" style="stop-color:#C79E5B"/>
			<stop offset="1" style="stop-color:#C49954"/>
		</radialGradient>
		<path class="st2" d="M35.80000000000001,75.36668701171874 c-1.5,0.6000000000000001 -3.2,-0.4 -3.2,-2 v-13 c0,-0.8 0.4,-1.5 1,-1.9 c11.3,-7.4 29,-12.2 48.5,-12.2 c18.4,0 35.2,4.3 46.6,11 c0.7000000000000001,0.4 1.1,1.1 1.1,1.9 V72.66668701171875 c0,1.7000000000000002 -1.7000000000000002,2.7 -3.2,2 c-5.3,-2.6 -22.6,-6.6 -44.1,-6.6 C59.10000000000002,68.06668701171873 41.30000000000001,73.26668701171877 35.80000000000001,75.36668701171874 zM156.60000000000002,40.26668701171877 l-74.6,-29.4 c-0.6000000000000001,-0.2 -1.2,-0.2 -1.8,0 l-74.6,29.4 c-1.9,0.8 -1.9,3.5 0.1,4.2 l4.4,1.6 v31 l7.2,-4.7 V48.66668701171875 l10.2,3.7 c0.7000000000000001,0.2 1.4,0.1 2,-0.2 c12.2,-7.9 30.6,-12.9 51.5,-12.9 c20.6,0 38.8,4.8 51,12.6 c0.6000000000000001,0.4 1.3,0.5 1.9,0.2 l22.6,-7.5 C158.5,43.76668701171877 158.60000000000002,41.06668701171873 156.60000000000002,40.26668701171877 zM44.30000000000001,137.16668701171875 c0.4,0.4 0.8,0.8 1.3,1.4 l7.4,-1.9 c-1.7000000000000002,-1.6 -3,-3 -3.9,-3.9 c-3.2,-3.4 -6,-26.4 -7,-47.5 c3.9,-1.1 12.5,-3.1 24.5,-4.3 c11.1,-1.1 13.9,3.2 14.5,4.5 c0.6000000000000001,-1.3 3.5,-5.7 14.5,-4.5 c12,1.2 20.6,3.2 24.5,4.3 c-1,21.1 -3.9,44.1 -7,47.5 c-0.9,0.9 -2.2,2.3 -3.9,3.9 l7.4,1.9 c0.5,-0.5 0.9,-1 1.3,-1.3 c6.5,-6.9 8.5,-43.2 8.9,-54.2 l0.1,-2.4 l-2.3,-0.8 c-0.5,-0.2 -10.9,-3.4 -27.8,-5.3 c-13.1,-1.5 -15.8,3.8 -15.8,3.8 s-2.7,-5.3 -15.8,-3.8 c-17,1.9 -27.3,5.1 -27.8,5.3 l-2.3,0.8 l0.1,2.4 C35.80000000000001,93.86668701171874 37.80000000000001,130.26668701171877 44.30000000000001,137.16668701171875 z" id="svg_62"/>
		<path class="st3" d="M81.19999999999999,92.86668701171874 c10.3,0 18.7,8.4 18.7,18.7 s-8.4,18.7 -18.7,18.7 c-10.3,0 -18.7,-8.4 -18.7,-18.7 S70.80000000000001,92.86668701171874 81.19999999999999,92.86668701171874 zM75.60000000000002,136.76668701171877 l-25.1,6.5 c10.2,9.8 27.7,25.7 28.7,26.6 l2.1,1.9 l2.1,-1.9 c0.9,-0.8 18.4,-16.8 28.7,-26.6 l-25.2,-6.5 C83.10000000000002,135.76668701171877 79.19999999999999,135.76668701171877 75.60000000000002,136.76668701171877 z" id="svg_63"/>
		<g id="svg_64">
			<polygon class="st3" points="17.29998779296875,76.76669311523438 10.100006103515625,81.56668090820312 10.100006103515625,91.76669311523438 17.29998779296875,86.9666748046875 " id="svg_65"/>
		</g>
	</g>
</g><g id="svg_66">
</g><g id="svg_67">
</g><g id="svg_68">
</g><g id="svg_69">
</g><g id="svg_70">
</g><g id="svg_71">
</g><g id="svg_72">
</g><g id="svg_73">
</g><g id="svg_74">
</g><g id="svg_75">
</g><g id="svg_76">
</g><g id="svg_77">
</g><g id="svg_78">
</g><g id="svg_79">
</g><g id="svg_80">
</g></g></svg>