<svg xmlns="http://www.w3.org/2000/svg" viewBox="0 0 182.62 22.14"><defs><style>.cls-1{fill:#b3282d;}.cls-2{fill:#005031;}.cls-3{fill:#77777a;}</style></defs><title>logo baz color</title><g id="Capa_2" data-name="Capa 2"><g id="Capa_1-2" data-name="Capa 1"><path class="cls-1" d="M25.7,14.11a6.33,6.33,0,1,1-6.33-6.33,6.33,6.33,0,0,1,6.33,6.33"/><path class="cls-2" d="M27.57,0a46.17,46.17,0,0,0-8.72,2.42C11.17,5.66,5.76,11.31,6.22,16.08c.3,3.12,2,5.18,6,5.91C4.94,22.76.45,20.52,0,16.12-.49,10.81,6.63,4.34,16.08,1.38A33.25,33.25,0,0,1,20.23.46,49,49,0,0,1,27.57,0"/><path class="cls-2" d="M11.17,0A46.14,46.14,0,0,1,19.9,2.42C27.58,5.66,33,11.31,32.53,16.08c-.3,3.12-2,5.18-6,5.91,7.32.76,11.81-1.47,12.23-5.87.51-5.31-6.61-11.77-16.06-14.73A33.12,33.12,0,0,0,18.51.46,49,49,0,0,0,11.17,0"/><path class="cls-3" d="M49.26,4.43h6.5c1.51,0,4.13.59,4.13,3.35,0,2-1.53,3.44-3.84,3.71v0c1.68.25,2.83,1.22,2.83,2.83,0,3.1-2.66,4.57-6,4.61l-6.67.08ZM50.64,16.3h1c2,0,3.29-.55,3.29-2s-.92-1.46-2.68-1.46h-.94Zm1.28-6.08h1.47c1.63,0,2.6-.65,2.6-1.65,0-1.17-1-1.37-2.43-1.37h-1Z"/><path class="cls-3" d="M67,17.53l0,0v0a4.16,4.16,0,0,1-3.67,1.78c-2.35,0-3.65-1-3.65-3.17,0-2.68,2.68-4,6-4,.75,0,1.51.06,2,.11a1.52,1.52,0,0,0,0-.44c0-.78-.78-1.41-2-1.41a6.85,6.85,0,0,0-3.54.86l.38-2.75a11.76,11.76,0,0,1,4-.63c2.6,0,4.74,1,4.74,3.71,0,1.72-1,4.17-1.38,7.46H66.87Zm-2.52-.73a2.85,2.85,0,0,0,2.85-2.58,5.6,5.6,0,0,0-1-.07c-1.8-.06-3.12.59-3.12,1.55a1.2,1.2,0,0,0,1.28,1.09"/><path class="cls-3" d="M73.47,11c.19-.94.35-1.87.46-2.85h3.5l-.29,1.78h0a5.18,5.18,0,0,1,4.21-2c2.2,0,3.39,1.64,3.39,3.77A10.06,10.06,0,0,1,84.5,14l-1,5.09h-3.9l1-5.11a8.77,8.77,0,0,0,.25-1.66A1.25,1.25,0,0,0,79.42,11c-1.59,0-2.54,1.38-2.81,3l-1.07,5H71.77Z"/><path class="cls-3" d="M94.14,18.9a10.14,10.14,0,0,1-3.23.42,4.88,4.88,0,0,1-5.16-5c0-3.58,2.85-6.44,7-6.44a10.06,10.06,0,0,1,3.44.73l-.82,2.62A5.81,5.81,0,0,0,93,10.66a3.19,3.19,0,0,0-3.33,3.52,2.4,2.4,0,0,0,2.6,2.37,5.87,5.87,0,0,0,2.43-.48Z"/><path class="cls-3" d="M101.39,19.32c-4,0-5.68-2.24-5.68-5,0-3.84,2.77-6.44,7-6.44,3.71,0,5.68,2.14,5.68,4.89,0,4.55-3,6.54-7,6.54m1.17-8.78c-1.82,0-3,2-3,3.71,0,1.47.77,2.45,2.05,2.43,1.76,0,2.87-1.47,2.87-3.94,0-1.13-.5-2.2-2-2.2"/><path class="cls-3" d="M120.66,4.43h4.91L128,19.07H124l-.4-3.12h-5.68l-1.74,3.12H112Zm2,3h0l-3.1,5.72h3.78Z"/><polygon class="cls-3" points="128.85 16.21 134.8 10.91 130.13 10.91 130.69 8.14 139.96 8.14 139.37 10.99 133.38 16.3 138.37 16.3 137.8 19.07 128.31 19.07 128.85 16.21"/><path class="cls-3" d="M140.51,8.14h2.16l.52-2.35,4-1.07-.75,3.42H149l-.46,2.64h-2.75l-.65,3a10.24,10.24,0,0,0-.31,1.88,1.15,1.15,0,0,0,1.24,1.22,3.75,3.75,0,0,0,1.22-.31l-.42,2.49a15.36,15.36,0,0,1-2.35.21c-1.93,0-3.46-.95-3.46-3.23a10.3,10.3,0,0,1,.34-2.24l.65-3.06h-2Z"/><path class="cls-3" d="M158.07,18.71a13.94,13.94,0,0,1-3.82.61c-3.65,0-5.62-2.24-5.62-5a6.29,6.29,0,0,1,6.54-6.44c2.87,0,5,1.45,5,4.76a12.08,12.08,0,0,1-.27,2.05H152.2c0,1.18.63,2.1,2.93,2.1a8.54,8.54,0,0,0,3.42-.75Zm-1-6.14c0-1.17-.46-2.16-1.85-2.16a2.79,2.79,0,0,0-2.79,2.16Z"/><path class="cls-3" d="M169.52,18.9a10.13,10.13,0,0,1-3.23.42,4.88,4.88,0,0,1-5.16-5c0-3.58,2.85-6.44,7-6.44a10.06,10.06,0,0,1,3.44.73l-.82,2.62a5.81,5.81,0,0,0-2.43-.59A3.19,3.19,0,0,0,165,14.18a2.4,2.4,0,0,0,2.6,2.37,5.87,5.87,0,0,0,2.43-.48Z"/><path class="cls-3" d="M178.32,17.53l0,0v0a4.16,4.16,0,0,1-3.67,1.78c-2.35,0-3.65-1-3.65-3.17,0-2.68,2.68-4,6-4,.75,0,1.51.06,2,.11a1.53,1.53,0,0,0,0-.44c0-.78-.77-1.41-2-1.41a6.84,6.84,0,0,0-3.54.86l.38-2.75a11.77,11.77,0,0,1,4-.63c2.6,0,4.74,1,4.74,3.71,0,1.72-1,4.17-1.38,7.46h-3.08Zm-2.51-.73a2.85,2.85,0,0,0,2.85-2.58,5.6,5.6,0,0,0-1-.07c-1.8-.06-3.12.59-3.12,1.55a1.2,1.2,0,0,0,1.28,1.09"/></g></g></svg>