<?xml version="1.0" encoding="utf-8"?>
<!-- Generator: Adobe Illustrator 19.0.0, SVG Export Plug-In . SVG Version: 6.00 Build 0)  -->
<svg version="1.1" id="Capa_1" xmlns="http://www.w3.org/2000/svg" xmlns:xlink="http://www.w3.org/1999/xlink" x="0px" y="0px"
	 viewBox="0 0 92 92" style="enable-background:new 0 0 92 92;" xml:space="preserve">
<style type="text/css">
	.st0{fill:#FFFFFF;}
	.st1{fill:#3D9175;}
</style>
<g id="XMLID_96_">
	<path id="XMLID_94_" class="st0" d="M41.4,76.2H26.6c-1.8,0-3.2-1.5-3.2-3.2v-0.5c0-1.8,1.5-3.2,3.2-3.2h14.9
		c1.8,0,3.2,1.5,3.2,3.2V73C44.7,74.8,43.2,76.2,41.4,76.2"/>
	<path id="XMLID_95_" class="st1" d="M41.4,76.5H26.6c-1.9,0-3.5-1.6-3.5-3.5v-0.5c0-1.9,1.6-3.5,3.5-3.5h14.9
		c1.9,0,3.5,1.6,3.5,3.5V73C44.9,74.9,43.4,76.5,41.4,76.5z M26.6,69.5c-1.7,0-3,1.4-3,3V73c0,1.7,1.4,3,3,3h14.9c1.7,0,3-1.4,3-3
		v-0.5c0-1.7-1.4-3-3-3H26.6z"/>
</g>
<g id="XMLID_93_">
	<path id="XMLID_178_" class="st1" d="M41.4,77H26.6c-2.2,0-4-1.8-4-4v-0.5c0-2.2,1.8-4,4-4h14.9c2.2,0,4,1.8,4,4V73
		C45.5,75.2,43.7,77,41.4,77 M26.6,70.1c-1.4,0-2.5,1.1-2.5,2.5V73c0,1.4,1.1,2.5,2.5,2.5h14.9c1.4,0,2.5-1.1,2.5-2.5v-0.5
		c0-1.4-1.1-2.5-2.5-2.5H26.6z"/>
	<path id="XMLID_181_" class="st1" d="M41.4,77.3H26.6c-2.4,0-4.3-1.9-4.3-4.3v-0.5c0-2.4,1.9-4.3,4.3-4.3h14.9
		c2.4,0,4.3,1.9,4.3,4.3V73C45.7,75.3,43.8,77.3,41.4,77.3z M26.6,68.7c-2.1,0-3.8,1.7-3.8,3.8V73c0,2.1,1.7,3.8,3.8,3.8h14.9
		c2.1,0,3.8-1.7,3.8-3.8v-0.5c0-2.1-1.7-3.8-3.8-3.8H26.6z M41.4,75.7H26.6c-1.5,0-2.7-1.2-2.7-2.7v-0.5c0-1.5,1.2-2.7,2.7-2.7h14.9
		c1.5,0,2.7,1.2,2.7,2.7V73C44.1,74.5,42.9,75.7,41.4,75.7z M26.6,70.3c-1.2,0-2.2,1-2.2,2.2V73c0,1.2,1,2.2,2.2,2.2h14.9
		c1.2,0,2.2-1,2.2-2.2v-0.5c0-1.2-1-2.2-2.2-2.2H26.6z"/>
</g>
<g id="XMLID_92_">
	<path id="XMLID_90_" class="st0" d="M40.1,69.2H25.3c-1.8,0-3.2-1.5-3.2-3.2v-0.5c0-1.8,1.5-3.2,3.2-3.2h14.9
		c1.8,0,3.2,1.5,3.2,3.2v0.5C43.4,67.7,41.9,69.2,40.1,69.2"/>
	<path id="XMLID_91_" class="st1" d="M40.1,69.4H25.3c-1.9,0-3.5-1.6-3.5-3.5v-0.5c0-1.9,1.6-3.5,3.5-3.5h14.9
		c1.9,0,3.5,1.6,3.5,3.5v0.5C43.6,67.9,42,69.4,40.1,69.4z M25.3,62.5c-1.7,0-3,1.4-3,3v0.5c0,1.7,1.4,3,3,3h14.9c1.7,0,3-1.4,3-3
		v-0.5c0-1.7-1.4-3-3-3H25.3z"/>
</g>
<g id="XMLID_89_">
	<path id="XMLID_168_" class="st1" d="M40.1,70H25.3c-2.2,0-4-1.8-4-4v-0.5c0-2.2,1.8-4,4-4h14.9c2.2,0,4,1.8,4,4v0.5
		C44.2,68.2,42.3,70,40.1,70 M25.3,63c-1.4,0-2.5,1.1-2.5,2.5v0.5c0,1.4,1.1,2.5,2.5,2.5h14.9c1.4,0,2.5-1.1,2.5-2.5v-0.5
		c0-1.4-1.1-2.5-2.5-2.5H25.3z"/>
	<path id="XMLID_171_" class="st1" d="M40.1,70.2H25.3c-2.4,0-4.3-1.9-4.3-4.3v-0.5c0-2.4,1.9-4.3,4.3-4.3h14.9
		c2.4,0,4.3,1.9,4.3,4.3v0.5C44.4,68.3,42.5,70.2,40.1,70.2z M25.3,61.7c-2.1,0-3.8,1.7-3.8,3.8v0.5c0,2.1,1.7,3.8,3.8,3.8h14.9
		c2.1,0,3.8-1.7,3.8-3.8v-0.5c0-2.1-1.7-3.8-3.8-3.8H25.3z M40.1,68.6H25.3c-1.5,0-2.7-1.2-2.7-2.7v-0.5c0-1.5,1.2-2.7,2.7-2.7h14.9
		c1.5,0,2.7,1.2,2.7,2.7v0.5C42.8,67.4,41.6,68.6,40.1,68.6z M25.3,63.2c-1.2,0-2.2,1-2.2,2.2v0.5c0,1.2,1,2.2,2.2,2.2h14.9
		c1.2,0,2.2-1,2.2-2.2v-0.5c0-1.2-1-2.2-2.2-2.2H25.3z"/>
</g>
<g id="XMLID_88_">
	
		<rect id="XMLID_86_" x="14.1" y="22.5" transform="matrix(0.5438 -0.8392 0.8392 0.5438 -10.0829 57.0074)" class="st0" width="66.5" height="30.5"/>
	<path id="XMLID_87_" class="st1" d="M42.2,74.3L42,74.2L16.2,57.5l0.1-0.2l36.3-56l26,16.8l-0.1,0.2L42.2,74.3z M16.8,57.3L42,73.6
		l35.9-55.4L52.8,1.9L16.8,57.3z"/>
</g>
<g id="XMLID_85_">
	<path id="XMLID_158_" class="st1" d="M42.3,75.1L15.4,57.6l37-57.1l26.9,17.4L42.3,75.1z M17.6,57.2l24.2,15.7l35.3-54.5L52.9,2.7
		L17.6,57.2z"/>
	<path id="XMLID_161_" class="st1" d="M42.4,75.4l-0.2-0.1L15.1,57.7l0.1-0.2L52.4,0.2l27.3,17.7L79.5,18L42.4,75.4z M15.8,57.6
		l26.5,17.2L79,18L52.5,0.8L15.8,57.6z M41.9,73.2l-0.2-0.1L17.3,57.2l0.1-0.2L52.9,2.4l24.6,16l-0.1,0.2L41.9,73.2z M17.9,57.1
		l23.9,15.5l35.1-54.1L53,3L17.9,57.1z"/>
</g>
<g id="XMLID_84_">
	<polyline id="XMLID_156_" class="st0" points="43.4,22.7 47.6,16.2 53.7,6.7 73.2,19.3 64.4,32.8 	"/>
	<polygon id="XMLID_157_" class="st1" points="64.6,32.9 64.2,32.7 72.9,19.4 53.8,7 43.6,22.8 43.2,22.5 53.7,6.4 73.5,19.2 	"/>
</g>
<g id="XMLID_83_">
	<polygon id="XMLID_152_" class="st1" points="65.1,33.2 63.8,32.4 72.1,19.5 54,7.8 44,23.1 42.7,22.2 53.5,5.6 74.3,19.1 	"/>
	<path id="XMLID_153_" class="st1" d="M64.3,33L64.3,33c-0.5-0.3-0.6-0.9-0.3-1.4l7.2-11.2c0.3-0.5,0.2-1.1-0.3-1.4l-16-10.4
		c-0.5-0.3-1.1-0.2-1.4,0.3l-8.8,13.6c-0.3,0.5-0.9,0.6-1.4,0.3h0c-0.5-0.3-0.6-0.9-0.3-1.4l9.9-15.3c0.3-0.5,0.9-0.6,1.4-0.3
		l19.5,12.6c0.5,0.3,0.6,0.9,0.3,1.4l-8.3,12.9C65.4,33.2,64.8,33.3,64.3,33z M64.1,32.3l0.9,0.6l8.4-13c0.3-0.5,0.2-1.1-0.3-1.4
		L54.4,6.5c-0.5-0.3-1.1-0.2-1.4,0.3L43,22.2l0.9,0.6l9.4-14.5c0.3-0.5,0.9-0.6,1.4-0.3l16.8,10.9c0.5,0.3,0.6,0.9,0.3,1.4
		L64.1,32.3z"/>
</g>
<g id="XMLID_82_">
	<polyline id="XMLID_150_" class="st0" points="51.5,52.8 47.3,59.2 41.1,68.7 34.5,64.5 	"/>
	<polygon id="XMLID_151_" class="st1" points="41.2,69 34.4,64.6 34.6,64.3 41,68.4 51.3,52.6 51.7,52.9 	"/>
</g>
<g id="XMLID_81_">
	<path id="XMLID_146_" class="st1" d="M40.7,69.4l-5.9-3.9c-0.4-0.2-0.5-0.7-0.2-1.1l0,0c0.2-0.4,0.7-0.5,1.1-0.2l4.6,3
		c0.4,0.2,0.9,0.1,1.1-0.2l9.1-14c0.2-0.4,0.7-0.5,1.1-0.2h0c0.4,0.2,0.5,0.7,0.2,1.1l-9.9,15.3C41.5,69.5,41.1,69.6,40.7,69.4z"/>
	<path id="XMLID_147_" class="st1" d="M40.6,69.6l-5.9-3.9c-0.5-0.3-0.6-0.9-0.3-1.4l0,0c0.3-0.5,0.9-0.6,1.4-0.3l4.2,2.7
		c0.5,0.3,1.1,0.2,1.4-0.3l8.8-13.6c0.3-0.5,0.9-0.6,1.4-0.3h0c0.5,0.3,0.6,0.9,0.3,1.4L42,69.3C41.7,69.8,41,69.9,40.6,69.6z
		 M34.4,65l6,3.9c0.5,0.3,1.1,0.2,1.4-0.3l10-15.4l-0.9-0.6l-9.4,14.5c-0.3,0.5-0.9,0.6-1.4,0.3L35,64.1L34.4,65z"/>
</g>
<g id="XMLID_80_">
	<line id="XMLID_144_" class="st0" x1="28.5" y1="45.6" x2="32.4" y2="39.6"/>
	
		<rect id="XMLID_145_" x="30.2" y="39" transform="matrix(0.8395 0.5434 -0.5434 0.8395 28.0493 -9.6984)" class="st1" width="0.5" height="7.2"/>
</g>
<g id="XMLID_79_">
	<path id="XMLID_140_" class="st1" d="M28.5,45.6L28.5,45.6c-0.4-0.2-0.5-0.7-0.2-1.1l3-4.7c0.2-0.4,0.7-0.5,1.1-0.2l0,0
		c0.4,0.2,0.5,0.7,0.2,1.1l-3,4.7C29.3,45.8,28.9,45.9,28.5,45.6z"/>
	<path id="XMLID_141_" class="st1" d="M28.6,45.9l-0.4-0.2c-0.4-0.2-0.5-0.7-0.2-1.1l3.3-5.1c0.2-0.4,0.7-0.5,1.1-0.2l0.4,0.2
		c0.4,0.2,0.5,0.7,0.2,1.1l-3.3,5.1C29.4,46.1,28.9,46.2,28.6,45.9z M28.1,45.1l0.9,0.6l3.6-5.6l-0.9-0.6L28.1,45.1z"/>
</g>
<g id="XMLID_78_">
	<path id="XMLID_76_" class="st0" d="M53.6,28.2c5.3,3.4,6.8,10.5,3.4,15.7c-3.4,5.3-10.5,6.8-15.7,3.4c-5.3-3.4-6.8-10.5-3.4-15.7
		C41.3,26.2,48.3,24.7,53.6,28.2"/>
	<path id="XMLID_77_" class="st1" d="M47.4,49.3c-2.2,0-4.4-0.6-6.3-1.9c-2.6-1.7-4.4-4.3-5-7.3c-0.6-3-0.1-6.1,1.6-8.7
		c3.5-5.4,10.7-6.9,16-3.4l0,0c2.6,1.7,4.4,4.3,5,7.3c0.6,3,0.1,6.1-1.6,8.7c-1.7,2.6-4.3,4.4-7.3,5C49,49.2,48.2,49.3,47.4,49.3z
		 M47.4,26.6c-3.7,0-7.2,1.8-9.4,5.1c-1.6,2.5-2.2,5.5-1.5,8.4c0.6,2.9,2.3,5.4,4.8,7c2.5,1.6,5.5,2.2,8.4,1.5
		c2.9-0.6,5.4-2.3,7-4.8c1.6-2.5,2.2-5.5,1.5-8.4c-0.6-2.9-2.3-5.4-4.8-7C51.6,27.1,49.5,26.6,47.4,26.6z"/>
</g>
<g id="XMLID_75_">
	<path id="XMLID_72_" class="st1" d="M47.4,49.9c-2.3,0-4.6-0.6-6.6-2c-2.7-1.8-4.6-4.5-5.3-7.7c-0.7-3.2-0.1-6.4,1.7-9.2
		c1.8-2.7,4.5-4.6,7.7-5.3c3.2-0.7,6.4-0.1,9.2,1.7c5.6,3.6,7.2,11.2,3.6,16.8C55.3,47.9,51.4,49.9,47.4,49.9 M47.4,27.1
		c-0.7,0-1.5,0.1-2.2,0.2c-2.8,0.6-5.1,2.2-6.7,4.6c-1.5,2.4-2.1,5.2-1.5,8c0.6,2.8,2.2,5.1,4.6,6.7c4.9,3.2,11.5,1.8,14.6-3.1
		c3.2-4.9,1.8-11.5-3.1-14.6C51.4,27.7,49.4,27.1,47.4,27.1"/>
	<path id="XMLID_133_" class="st1" d="M47.4,50.1c-2.4,0-4.7-0.7-6.7-2c-2.8-1.8-4.7-4.6-5.4-7.8C34.6,37,35.2,33.7,37,31
		c1.8-2.8,4.6-4.7,7.8-5.4c3.2-0.7,6.6-0.1,9.3,1.7c5.7,3.7,7.4,11.4,3.7,17.1C55.5,48,51.6,50.1,47.4,50.1L47.4,50.1
		C47.4,50.1,47.4,50.1,47.4,50.1z M47.4,25.8c-0.8,0-1.7,0.1-2.5,0.3c-3.1,0.7-5.8,2.5-7.5,5.2c-1.7,2.7-2.3,5.9-1.7,9
		c0.7,3.1,2.5,5.8,5.2,7.5c1.9,1.3,4.2,1.9,6.5,1.9c0,0,0,0,0,0l0,0c4.1,0,7.8-2,10-5.4c3.6-5.5,2-12.9-3.5-16.5
		C51.9,26.4,49.7,25.8,47.4,25.8z M47.4,48.5c-2,0-4-0.6-5.9-1.7c-2.4-1.6-4.1-4-4.7-6.8c-0.6-2.8-0.1-5.7,1.5-8.1
		c1.6-2.4,4-4.1,6.8-4.7c2.8-0.6,5.7-0.1,8.1,1.5c2.4,1.6,4.1,4,4.7,6.8c0.6,2.8,0.1,5.7-1.5,8.1C54.4,46.8,50.9,48.5,47.4,48.5z
		 M47.4,27.3c-0.7,0-1.5,0.1-2.2,0.2c-2.7,0.6-5,2.2-6.5,4.5c-1.5,2.3-2,5.1-1.4,7.8c0.6,2.7,2.2,5,4.5,6.5
		c4.8,3.1,11.2,1.7,14.3-3.1c1.5-2.3,2-5.1,1.4-7.8c-0.6-2.7-2.2-5-4.5-6.5C51.3,27.9,49.4,27.3,47.4,27.3z"/>
</g>
<g id="XMLID_71_">
	<path id="XMLID_122_" class="st1" d="M55.6,42.8c-0.2,0.4-0.9,0.6-1.3,0.3l-0.5-0.3c-0.6,0.7-1.3,1.3-2.1,1.8c-1.2,0.6-2.7,0.8-4,0
		c-0.4-0.3-0.6-0.9-0.3-1.3c0.3-0.4,0.9-0.6,1.3-0.3c0.7,0.5,1.3,0.4,2.1,0c0.5-0.3,1-0.7,1.4-1.1l-4.4-2.9c-0.7,0.9-1.5,1.6-2.4,2
		c-1.2,0.5-2.7,0.4-4-0.4c-1.4-0.9-1.9-2.4-1.9-3.7c0-1,0.3-1.9,0.7-2.8l-0.5-0.3c-0.4-0.3-0.6-0.9-0.3-1.3c0.3-0.4,0.9-0.6,1.3-0.3
		l0.5,0.3c0.6-0.7,1.3-1.3,2.1-1.8c1.2-0.6,2.7-0.8,4,0c0.4,0.3,0.6,0.9,0.3,1.3c-0.3,0.4-0.9,0.6-1.3,0.3c-0.7-0.5-1.3-0.4-2.1,0
		c-0.5,0.3-1,0.7-1.4,1.1l4.4,2.8c0.7-0.9,1.5-1.6,2.4-2c1.2-0.5,2.7-0.4,4,0.4c1.4,0.9,1.9,2.4,1.9,3.7c0,1-0.3,1.9-0.8,2.7
		l0.5,0.3C55.7,41.7,55.8,42.4,55.6,42.8 M53.2,40.1c0.3-0.6,0.4-1.2,0.5-1.8c0-0.9-0.2-1.5-1-2.1c-0.9-0.6-1.5-0.6-2.2-0.3
		c-0.5,0.2-1,0.7-1.6,1.3L53.2,40.1z M46.1,37.8L41.8,35c-0.2,0.6-0.4,1.2-0.4,1.8c0,0.9,0.2,1.5,1,2.1c0.9,0.6,1.5,0.6,2.2,0.3
		C45.1,38.9,45.6,38.4,46.1,37.8"/>
	<path id="XMLID_126_" class="st1" d="M49.6,45.3c-0.8,0-1.5-0.2-2.1-0.6c-0.3-0.2-0.4-0.4-0.5-0.8c-0.1-0.3,0-0.6,0.2-0.9
		c0.2-0.3,0.4-0.4,0.8-0.5c0.3-0.1,0.6,0,0.9,0.2c0.6,0.4,1.1,0.4,1.9-0.1c0.4-0.2,0.8-0.5,1.1-0.9l-4-2.6c-0.7,0.9-1.5,1.6-2.4,1.9
		c-1.3,0.6-2.9,0.4-4.2-0.5c-1.3-0.8-2.1-2.3-2-3.9c0-0.9,0.3-1.8,0.7-2.7l-0.3-0.2c-0.3-0.2-0.4-0.4-0.5-0.8
		c-0.1-0.3,0-0.6,0.1-0.9c0.2-0.3,0.4-0.4,0.8-0.5c0.3-0.1,0.6,0,0.9,0.2l0.3,0.2c0.6-0.7,1.3-1.3,2.1-1.7c1.4-0.8,3-0.8,4.3,0
		c0.3,0.2,0.4,0.4,0.5,0.8c0.1,0.3,0,0.6-0.2,0.9c-0.2,0.3-0.4,0.4-0.8,0.5c-0.3,0.1-0.6,0-0.9-0.2c-0.6-0.4-1.1-0.4-1.9,0.1
		c-0.4,0.2-0.8,0.5-1.2,0.9l4,2.6c0.7-0.9,1.5-1.5,2.4-1.9c1.3-0.6,2.9-0.4,4.2,0.5c1.3,0.9,2.1,2.3,2,3.9c0,0.8-0.3,1.7-0.7,2.7
		l0.3,0.2c0.5,0.3,0.7,1.2,0.4,1.6v0c-0.2,0.2-0.4,0.4-0.7,0.5c-0.3,0.1-0.7,0-0.9-0.1l-0.3-0.2c-0.6,0.7-1.3,1.3-2,1.7
		C51.1,45.1,50.3,45.3,49.6,45.3z M48.2,43c-0.1,0-0.1,0-0.2,0c-0.2,0-0.4,0.2-0.5,0.3c-0.1,0.2-0.1,0.4-0.1,0.6
		c0,0.2,0.2,0.4,0.3,0.5c1.1,0.7,2.5,0.7,3.8,0c0.7-0.4,1.4-1,2-1.7l0.1-0.2l0.6,0.4c0.2,0.1,0.4,0.1,0.6,0.1c0.2,0,0.4-0.2,0.5-0.3
		c0.2-0.3,0.1-0.8-0.2-1l-0.6-0.4l0.1-0.2c0.5-0.9,0.7-1.8,0.7-2.6c0.1-1.5-0.6-2.8-1.8-3.5c-1.2-0.8-2.6-0.9-3.8-0.4
		c-0.8,0.4-1.6,1-2.3,1.9l-0.1,0.2l-4.8-3.1l0.2-0.2c0.3-0.4,0.9-0.9,1.5-1.2c0.9-0.5,1.6-0.5,2.3,0c0.2,0.1,0.4,0.1,0.6,0.1
		c0.2,0,0.4-0.2,0.5-0.3c0.1-0.2,0.1-0.4,0.1-0.6c0-0.2-0.2-0.4-0.3-0.5c-1.1-0.7-2.5-0.7-3.8,0c-0.7,0.4-1.5,1-2.1,1.7l-0.1,0.2
		l-0.6-0.4c-0.2-0.1-0.4-0.1-0.6-0.1c-0.2,0-0.4,0.2-0.5,0.3c-0.1,0.2-0.1,0.4-0.1,0.6c0,0.2,0.2,0.4,0.3,0.5l0.6,0.4L40.4,34
		c-0.4,0.9-0.7,1.8-0.7,2.7c-0.1,1.5,0.6,2.8,1.8,3.5c1.2,0.8,2.6,0.9,3.8,0.4c0.8-0.4,1.6-1,2.3-1.9l0.1-0.2l4.8,3.1l-0.2,0.2
		c-0.3,0.4-0.9,0.9-1.4,1.2c-0.9,0.5-1.6,0.5-2.3,0C48.4,43,48.3,43,48.2,43z M53.3,40.4l-4.8-3.1l0.2-0.2c0.5-0.7,1.1-1.1,1.6-1.4
		c0.8-0.4,1.5-0.3,2.4,0.3c0.8,0.5,1.2,1.2,1.1,2.3c0,0.7-0.3,1.4-0.5,1.8L53.3,40.4z M49.2,37.3l3.9,2.5c0.2-0.5,0.3-1,0.3-1.4
		c0-0.7-0.1-1.3-0.9-1.9c-0.9-0.6-1.4-0.5-2-0.3C50.1,36.4,49.7,36.7,49.2,37.3z M43.7,39.5c-0.5,0-0.9-0.2-1.5-0.5
		c-0.8-0.5-1.2-1.2-1.1-2.3c0-0.7,0.3-1.4,0.5-1.8l0.1-0.2l4.8,3.1L46.3,38c-0.6,0.7-1.1,1.1-1.6,1.4C44.3,39.5,44,39.5,43.7,39.5z
		 M41.9,35.3c-0.2,0.5-0.3,1-0.3,1.4c0,0.7,0.1,1.3,0.9,1.9c0.9,0.6,1.4,0.5,2,0.3c0.4-0.2,0.8-0.5,1.3-1.1L41.9,35.3z"/>
</g>
<g id="XMLID_64_">
	<path class="st1" d="M49.6,45.3c-0.7,0-1.5-0.2-2.1-0.6c-0.2-0.2-0.4-0.4-0.5-0.7c-0.1-0.3,0-0.6,0.1-0.9c0.2-0.2,0.4-0.4,0.7-0.5
		c0.3-0.1,0.6,0,0.9,0.2c0.6,0.4,1.1,0.4,1.9-0.1c0.4-0.2,0.8-0.5,1.2-0.9l-4-2.6c-0.7,0.9-1.5,1.6-2.4,1.9
		c-1.3,0.6-2.9,0.4-4.2-0.5c-1.3-0.8-2-2.3-2-3.9c0-0.9,0.3-1.8,0.7-2.7l-0.3-0.2c-0.2-0.2-0.4-0.4-0.5-0.7c-0.1-0.3,0-0.6,0.1-0.9
		c0.2-0.2,0.4-0.4,0.7-0.5c0.3-0.1,0.6,0,0.9,0.2l0.3,0.2c0.6-0.7,1.3-1.3,2.1-1.7c1.4-0.8,3-0.8,4.3,0c0.2,0.2,0.4,0.4,0.5,0.7
		c0.1,0.3,0,0.6-0.1,0.9c-0.2,0.3-0.4,0.4-0.7,0.5c-0.3,0.1-0.6,0-0.9-0.2c-0.6-0.4-1.1-0.4-1.9,0.1c-0.4,0.2-0.8,0.5-1.2,0.9l4,2.6
		c0.7-0.9,1.5-1.5,2.4-1.9c1.3-0.6,2.9-0.4,4.2,0.5c1.3,0.8,2,2.3,2,3.9c0,0.8-0.3,1.7-0.7,2.7l0.3,0.2c0.5,0.3,0.7,1.1,0.3,1.6v0
		c-0.3,0.5-1.1,0.7-1.6,0.3L53.8,43c-0.6,0.7-1.3,1.3-2.1,1.7C51.1,45.1,50.3,45.3,49.6,45.3 M48.2,43c-0.1,0-0.1,0-0.2,0
		c-0.2,0-0.4,0.2-0.5,0.3c-0.1,0.2-0.1,0.4-0.1,0.6c0,0.2,0.2,0.4,0.3,0.5c1.1,0.7,2.5,0.7,3.8,0c0.7-0.4,1.4-1,2-1.7l0.1-0.1
		l0.6,0.4c0.4,0.2,0.9,0.1,1-0.2c0.2-0.3,0.1-0.9-0.2-1l-0.6-0.4l0.1-0.2c0.5-0.9,0.7-1.8,0.7-2.7c0.1-1.5-0.6-2.8-1.8-3.6
		c-1.2-0.8-2.6-0.9-3.8-0.4c-0.8,0.4-1.6,1-2.3,1.9l-0.1,0.1l-4.8-3.1l0.2-0.2c0.3-0.4,0.8-0.9,1.5-1.2c0.9-0.5,1.6-0.5,2.3,0
		c0.2,0.1,0.4,0.1,0.6,0.1c0.2,0,0.4-0.2,0.5-0.3c0.1-0.2,0.1-0.4,0.1-0.6c0-0.2-0.2-0.4-0.3-0.5c-1.1-0.7-2.5-0.7-3.8,0
		c-0.8,0.4-1.5,1-2.1,1.7l-0.1,0.1l-0.6-0.4c-0.2-0.1-0.4-0.1-0.6-0.1c-0.2,0-0.4,0.2-0.5,0.3c-0.1,0.2-0.1,0.4-0.1,0.6
		c0,0.2,0.2,0.4,0.3,0.5l0.6,0.4L40.3,34c-0.4,0.9-0.7,1.8-0.7,2.7c-0.1,1.5,0.6,2.8,1.8,3.6c1.2,0.8,2.6,0.9,3.8,0.4
		c0.8-0.4,1.6-1,2.3-2l0.1-0.1l4.8,3.1l-0.2,0.2c-0.3,0.4-0.8,0.9-1.4,1.2c-0.9,0.5-1.6,0.5-2.3,0C48.4,43,48.3,43,48.2,43
		 M53.3,40.4l-4.7-3.1l0.1-0.2c0.5-0.7,1.1-1.1,1.6-1.4c0.8-0.4,1.5-0.3,2.4,0.3c0.8,0.5,1.1,1.2,1.1,2.2c0,0.5-0.2,1.2-0.5,1.8
		L53.3,40.4z M49.2,37.3l3.9,2.5c0.2-0.5,0.3-1,0.3-1.5c0-0.8-0.1-1.4-0.9-1.9c-0.9-0.6-1.4-0.5-2-0.3
		C50.1,36.4,49.6,36.7,49.2,37.3 M43.7,39.5c-0.5,0-0.9-0.2-1.5-0.5c-0.8-0.5-1.1-1.2-1.1-2.2c0-0.7,0.3-1.4,0.5-1.8l0.1-0.2
		l4.7,3.1l-0.1,0.2c-0.6,0.7-1.1,1.1-1.6,1.4C44.3,39.4,44,39.5,43.7,39.5 M41.9,35.3c-0.2,0.5-0.3,1-0.3,1.5c0,0.8,0.1,1.4,0.9,1.9
		c0.9,0.6,1.4,0.5,2,0.3c0.4-0.2,0.9-0.5,1.3-1.1L41.9,35.3z"/>
</g>
<g id="XMLID_63_">
	<path id="XMLID_120_" class="st0" d="M13.3,68.4L13.3,68.4c1.5,1.2,3.7,1,4.9-0.5l5.6-6.8c0.6,1.2,2.1,1.2,3.5,1.2H30
		c0.3,0,0.7,0,1,0h3.7c1.9,0,3.5-1.6,3.5-3.5v-0.3c0-1.9-1.6-3.5-3.5-3.5h-1.9c-0.1,0-0.1-0.1-0.2-0.1l-6.3-3.4
		c-1-0.6-2.3-0.8-3.4-0.2l-11.6,5.2l-0.3,0c-3.9,0-7.1,3.2-7.1,7.1v17.9c0,3.9,3.2,7.1,7.1,7.1c0,0,1.6,1.7,7.3,1.7h16.5"/>
	<path id="XMLID_121_" class="st1" d="M34.9,90.4H18.3c-5.1,0-7-1.4-7.4-1.7c-4,0-7.2-3.3-7.2-7.3V63.5c0-4,3.3-7.3,7.3-7.3l0.2,0
		L22.9,51c1.2-0.6,2.5-0.5,3.6,0.3l6.3,3.4c0.1,0,0.1,0.1,0.2,0.1h1.8c2,0,3.7,1.7,3.7,3.7v0.3c0,2-1.7,3.7-3.7,3.7h-3.7
		c-0.3,0-0.7,0-1,0l-2.7,0c-1.1,0-2.8,0-3.5-1.1L18.4,68c-0.6,0.8-1.5,1.3-2.5,1.4c-1,0.1-2-0.2-2.7-0.8l0.3-0.4
		c0.7,0.5,1.5,0.8,2.4,0.7c0.9-0.1,1.6-0.5,2.2-1.2l5.9-7.1L24,61c0.5,1,1.9,1.1,3.3,1.1H30c0.3,0,0.7,0,1,0l3.8,0
		c1.8,0,3.3-1.5,3.3-3.3v-0.3c0-1.8-1.5-3.3-3.3-3.3h-2l-0.1,0c-0.1,0-0.1-0.1-0.2-0.1l-6.3-3.4c-1-0.6-2.2-0.7-3.2-0.2l-11.7,5.2
		l-0.3,0c-3.8,0-6.9,3.1-6.9,6.8v17.9c0,3.8,3.1,6.8,6.8,6.8h0.1l0.1,0.1c0,0,1.6,1.6,7.1,1.6h16.5V90.4z"/>
</g>
<g id="XMLID_62_">
	<path id="XMLID_116_" class="st1" d="M34.9,91H18.3c-4.8,0-6.9-1.2-7.6-1.7c-4.2-0.2-7.6-3.6-7.6-7.9V63.5c0-4.3,3.5-7.9,7.9-7.9
		l0.1,0l11.5-5.1c1.3-0.6,2.9-0.5,4.2,0.3l6.3,3.4c0,0,0,0,0.1,0h1.7c2.4,0,4.3,1.9,4.3,4.3v0.3c0,2.4-1.9,4.3-4.3,4.3H31
		c-0.3,0.1-0.7,0-1.1,0l-2.6,0c-1,0-2.5,0-3.5-0.8l-5,6.1c-1.5,1.8-4.2,2.1-6,0.7l1-1.2c1.2,0.9,2.9,0.7,3.8-0.4l6.4-7.8l0.5,1.1
		c0.4,0.7,1.6,0.8,2.8,0.8H30c0.4,0,0.6,0,0.9,0l3.9,0c1.5,0,2.7-1.2,2.7-2.7v-0.3c0-1.5-1.2-2.7-2.7-2.7h-2.1l-0.4-0.2L26,52.2
		c-0.8-0.6-1.8-0.6-2.7-0.2l-11.9,5.2l-0.3,0c-3.5,0-6.3,2.8-6.3,6.3v17.9c0,3.5,2.8,6.3,6.3,6.3h0.3l0.2,0.3c0,0,1.6,1.5,6.7,1.5
		h16.5V91z"/>
	<path id="XMLID_117_" class="st1" d="M35.1,91.2H18.3c-4.8,0-6.9-1.2-7.7-1.7c-4.3-0.2-7.7-3.7-7.7-8.1V63.5c0-4.5,3.6-8.1,8.1-8.1
		l0.1,0l11.4-5.1c1.4-0.7,3-0.5,4.4,0.3l6.3,3.4l1.6,0c2.5,0,4.5,2,4.5,4.5v0.3c0,2.5-2,4.5-4.5,4.5H31c-0.3,0.1-0.7,0-1.2,0l-2.6,0
		c-1,0-2.4,0-3.5-0.7L19,68.5c-0.7,0.9-1.8,1.5-3,1.6c-1.2,0.1-2.4-0.2-3.3-1l-0.2-0.1l1.3-1.6l0.2,0.1c0.5,0.4,1.2,0.6,1.8,0.5
		c0.7-0.1,1.2-0.4,1.7-0.9l6.6-8l0.7,1.4c0.3,0.7,1.8,0.7,2.6,0.7H30c0.4,0,0.6,0,0.9,0l3.9,0c1.4,0,2.5-1.1,2.5-2.5v-0.3
		c0-1.4-1.1-2.5-2.5-2.5h-2.2l-0.4-0.3l-6.3-3.4c-0.8-0.5-1.7-0.6-2.5-0.2l-12,5.3l-0.3,0c-3.4,0-6.1,2.7-6.1,6v17.9
		c0,3.3,2.7,6,6,6h0.4l0.3,0.3c0.1,0.1,1.7,1.4,6.5,1.4h16.8V91.2z M24.4,50.3c-0.6,0-1.2,0.1-1.7,0.4l-11.6,5.1l-0.1,0
		c-4.2,0-7.6,3.4-7.6,7.6v17.9c0,4.1,3.2,7.5,7.3,7.6l0.1,0l0.1,0c0.7,0.5,2.7,1.7,7.4,1.7h16.3v-1.1H18.3c-4.6,0-6.4-1.2-6.8-1.5h0
		l-0.2-0.3H11c-3.6,0-6.5-2.9-6.5-6.5V63.5c0-3.6,2.9-6.5,6.5-6.5l0.2,0l11.9-5.2c0.9-0.4,2-0.4,2.9,0.2l6.6,3.6h2.1
		c1.6,0,2.9,1.3,2.9,2.9v0.3c0,1.6-1.3,2.9-2.9,2.9l-3.8,0c-0.3,0-0.6,0-0.9,0l-2.7,0c-1.2,0-2.6-0.1-3-0.9L23.9,60l-6.2,7.5
		c-0.5,0.6-1.2,1-2,1.1c-0.7,0.1-1.4-0.1-2-0.5L13.1,69c0.8,0.6,1.8,0.8,2.8,0.7c1.1-0.1,2-0.6,2.7-1.5l5.2-6.3l0.2,0.1
		c0.9,0.7,2.4,0.7,3.4,0.7l2.6,0c0.4,0.1,0.8,0.1,1.1,0l3.8,0c2.2,0,4-1.8,4-4v-0.3c0-2.2-1.8-4-4-4H33l-0.1,0l0.1-0.2l-0.1,0.2
		L26.7,51C26,50.6,25.2,50.3,24.4,50.3z"/>
</g>
<g id="XMLID_61_">
	<path id="XMLID_59_" class="st0" d="M37.7,83.2H26.4c-1.8,0-3.2-1.5-3.2-3.2v-0.5c0-1.8,1.5-3.2,3.2-3.2h11.3
		c1.8,0,3.2,1.5,3.2,3.2V80C40.9,81.7,39.5,83.2,37.7,83.2"/>
	<path id="XMLID_60_" class="st1" d="M37.7,83.4H26.4c-1.9,0-3.5-1.6-3.5-3.5v-0.5c0-1.9,1.6-3.5,3.5-3.5h11.3
		c1.9,0,3.5,1.6,3.5,3.5V80C41.2,81.9,39.6,83.4,37.7,83.4z M26.4,76.5c-1.7,0-3,1.4-3,3V80c0,1.7,1.4,3,3,3h11.3c1.7,0,3-1.4,3-3
		v-0.5c0-1.7-1.4-3-3-3H26.4z"/>
</g>
<g id="XMLID_58_">
	<path id="XMLID_106_" class="st1" d="M37.7,84H26.4c-2.2,0-4-1.8-4-4v-0.5c0-2.2,1.8-4,4-4h11.3c2.2,0,4,1.8,4,4V80
		C41.7,82.2,39.9,84,37.7,84 M26.4,77c-1.4,0-2.5,1.1-2.5,2.5V80c0,1.4,1.1,2.5,2.5,2.5h11.3c1.4,0,2.5-1.1,2.5-2.5v-0.5
		c0-1.4-1.1-2.5-2.5-2.5H26.4z"/>
	<path id="XMLID_109_" class="st1" d="M37.7,84.2H26.4c-2.4,0-4.3-1.9-4.3-4.3v-0.5c0-2.4,1.9-4.3,4.3-4.3h11.3
		c2.4,0,4.3,1.9,4.3,4.3V80C42,82.3,40,84.2,37.7,84.2z M26.4,75.7c-2.1,0-3.8,1.7-3.8,3.8V80c0,2.1,1.7,3.8,3.8,3.8h11.3
		c2.1,0,3.8-1.7,3.8-3.8v-0.5c0-2.1-1.7-3.8-3.8-3.8H26.4z M37.7,82.6H26.4c-1.5,0-2.7-1.2-2.7-2.7v-0.5c0-1.5,1.2-2.7,2.7-2.7h11.3
		c1.5,0,2.7,1.2,2.7,2.7V80C40.4,81.4,39.2,82.6,37.7,82.6z M26.4,77.3c-1.2,0-2.2,1-2.2,2.2V80c0,1.2,1,2.2,2.2,2.2h11.3
		c1.2,0,2.2-1,2.2-2.2v-0.5c0-1.2-1-2.2-2.2-2.2H26.4z"/>
</g>
<g id="XMLID_57_">
	<path id="XMLID_55_" class="st0" d="M35.1,90.2H23.8c-1.8,0-3.2-1.5-3.2-3.2v-0.5c0-1.8,1.5-3.2,3.2-3.2h11.3
		c1.8,0,3.2,1.5,3.2,3.2V87C38.3,88.8,36.9,90.2,35.1,90.2"/>
	<path id="XMLID_56_" class="st1" d="M35.1,90.4H23.8c-1.9,0-3.5-1.6-3.5-3.5v-0.5c0-1.9,1.6-3.5,3.5-3.5h11.3
		c1.9,0,3.5,1.6,3.5,3.5V87C38.6,88.9,37,90.4,35.1,90.4z M23.8,83.5c-1.7,0-3,1.4-3,3V87c0,1.7,1.4,3,3,3h11.3c1.7,0,3-1.4,3-3
		v-0.5c0-1.7-1.4-3-3-3H23.8z"/>
</g>
<g id="XMLID_54_">
	<path id="XMLID_53_" class="st1" d="M35.1,91H23.8c-2.2,0-4-1.8-4-4v-0.5c0-2.2,1.8-4,4-4h11.3c2.2,0,4,1.8,4,4V87
		C39.1,89.2,37.3,91,35.1,91 M23.8,84c-1.4,0-2.5,1.1-2.5,2.5V87c0,1.4,1.1,2.5,2.5,2.5h11.3c1.4,0,2.5-1.1,2.5-2.5v-0.5
		c0-1.4-1.1-2.5-2.5-2.5H23.8z"/>
	<path id="XMLID_99_" class="st1" d="M35.1,91.2H23.8c-2.4,0-4.3-1.9-4.3-4.3v-0.5c0-2.4,1.9-4.3,4.3-4.3h11.3
		c2.4,0,4.3,1.9,4.3,4.3V87C39.4,89.3,37.4,91.2,35.1,91.2z M23.8,82.7c-2.1,0-3.8,1.7-3.8,3.8V87c0,2.1,1.7,3.8,3.8,3.8h11.3
		c2.1,0,3.8-1.7,3.8-3.8v-0.5c0-2.1-1.7-3.8-3.8-3.8H23.8z M35.1,89.6H23.8c-1.5,0-2.7-1.2-2.7-2.7v-0.5c0-1.5,1.2-2.7,2.7-2.7h11.3
		c1.5,0,2.7,1.2,2.7,2.7V87C37.8,88.4,36.6,89.6,35.1,89.6z M23.8,84.3c-1.2,0-2.2,1-2.2,2.2V87c0,1.2,1,2.2,2.2,2.2h11.3
		c1.2,0,2.2-1,2.2-2.2v-0.5c0-1.2-1-2.2-2.2-2.2H23.8z"/>
</g>
</svg>
