<svg enable-background="new 0 0 500 500" viewBox="0 0 500 500" xmlns="http://www.w3.org/2000/svg"><g fill="#3d9175"><path d="m327.7 15.4v170.1c0 4.6-3.6 8.1-8.1 8.1-4.6 0-8.1-3.5-8.1-8.1v-170.1c0-4.6 3.6-8.1 8.1-8.1s8.1 3.6 8.1 8.1"/><path d="m396.6 79.7c0 2-1 4-2.5 5.6-3 3-8.6 3-11.6 0l-62.4-62.3-63.3 62.8c-3 3-8.6 3-11.6 0s-3-8.6 0-11.7l74.9-73.9 74.4 73.9c1.6 1.6 2.1 3.6 2.1 5.6"/><path d="m188.8 178.2v-170.1c0-4.6-3.5-8.1-8.1-8.1s-8.1 3.5-8.1 8.1v170.1c0 4.6 3.5 8.1 8.1 8.1 4.5 0 8.1-3.5 8.1-8.1"/><path d="m257.7 113.9c0-2-1-4-2.5-5.6-3-3-8.6-3-11.6 0l-62.3 62.3-63.3-62.8c-3-3-8.6-3-11.6 0s-3 8.6 0 11.6l74.9 73.9 74.5-73.9c1.4-1.4 1.9-3.4 1.9-5.5"/><path d="m253.6 500.1c-75.3 0-136.2-60.9-136.2-136.2s60.9-136.8 136.2-136.8 136.2 60.9 136.2 136.3c.6 36.2-13.2 70.1-38.5 96s-59.2 40.2-94.9 40.8h-2.8zm0-254.1c-65 0-117.9 52.9-117.9 117.3s52.9 117.8 117.9 117.8h2.9c31-.6 60.4-12.6 81.6-35 21.9-22.4 33.3-51.7 33.3-82.8 0-64.4-52.8-117.3-117.8-117.3"/><path d="m252.4 367.9c-19.5 0-35.6-15.5-36.2-34.5-.6-9.8 2.9-19 9.8-25.9 6.3-6.9 15.5-11.5 25.3-11.5h2.9c7.5 0 15.5 2.3 21.9 6.4 4.6 2.9 5.7 8.6 2.9 12.6-2.9 4.6-8.6 5.8-12.7 2.9-4-2.3-8-3.4-12.6-4h-1.7c-4.6 0-9.2 2.3-12.1 5.7-3.4 3.5-4.6 8-4.6 12.6.6 9.8 8.6 17.3 18.4 16.7 5.2 0 9.8 4 9.8 9.2s-4 9.8-9.2 9.8z"/><path d="m254.7 421.3h-1.1c-13.2-.6-25.3-7.5-32.2-19-2.9-4.6-1.1-10.3 2.9-12.6 4.6-2.9 10.3-1.1 12.6 2.9 3.4 5.7 9.8 9.8 17.2 9.8h1.7c4.6 0 9.2-2.3 12.1-5.7 3.5-3.5 4.6-8 4.6-12.7-.6-9.8-8.6-17.2-18.4-16.6-5.2 0-9.8-4-9.8-9.2s4-9.8 9.2-9.8c20.1-.6 36.8 15 37.4 34.5.6 9.8-2.9 19-9.8 25.9-6.3 6.9-15.5 11.5-25.3 11.5.1 1-.5 1-1.1 1"/><path d="m253.6 313.8c-5.2 0-9.2-4-9.2-9.2v-23c0-5.2 4-9.2 9.2-9.2s9.2 4 9.2 9.2v23c0 5.2-4 9.2-9.2 9.2"/><path d="m253.6 443.2c-5.2 0-9.2-4-9.2-9.2v-21.9c0-5.2 4-9.2 9.2-9.2s9.2 4 9.2 9.2v21.9c0 5.1-4 9.2-9.2 9.2"/></g></svg>